<svg id="Layer_1" data-name="Layer 1" xmlns="http://www.w3.org/2000/svg" viewBox="0 0 706.47 680.32"><defs><style>.cls-1{fill:#9d4ee0;opacity:0.6;isolation:isolate;}.cls-2{fill:#5d6bda;}.cls-3{opacity:0.67;}.cls-4{fill:#6387c1;}.cls-5{fill:#ebe8ec;}.cls-6{fill:#ecd0a1;}.cls-7{fill:#1e2322;}.cls-8{fill:#ddbb8a;}.cls-9{fill:#fed976;}.cls-10{fill:#fff;}.cls-11{fill:#28243f;}.cls-12{fill:#333049;}.cls-13{fill:#3f2a3f;}.cls-14{fill:#f2b10f;}.cls-15{fill:#ccc;}.cls-16{fill:#8cacdd;}.cls-17{fill:#a0bcea;}.cls-18{fill:#d2e1f7;}</style></defs><title>header</title><path id="Path_3" data-name="Path 3" class="cls-1" d="M656.83,262c57.23,45.74,66.35,122.14,0,176.29,0,0-6.08,8.6-86.61,73S285.58,676.06,285.58,676.06c-46.18,29.59-135.8,22.4-193-77.8C61.93,544.7,50.86,463.61,45.77,344.54,48.31,223,53.11,155.79,85.23,102.63c55.61-92,155.38-107.28,200.35-78.47,0,0,201.5,101.9,284.64,166.21S656.83,262,656.83,262Z" transform="translate(3.23 -11.01)"/><path id="Path_2" data-name="Path 2" class="cls-2" d="M628.94,258.63c53.59,43.5,62.13,116.14,0,167.64,0,0-5.69,8.18-81.1,69.4S281.32,652.42,281.32,652.42c-43.24,28.13-127.16,21.29-180.76-74-28.66-50.94-39-128-43.79-241.28,2.38-115.62,6.87-179.49,36.95-230,52.07-87.53,145.49-102,187.6-74.63,0,0,188.68,96.91,266.52,158.06S628.94,258.63,628.94,258.63Z" transform="translate(3.23 -11.01)"/><g id="Group_72" data-name="Group 72"><g id="Group_2" data-name="Group 2" class="cls-3"><ellipse id="Ellipse_1" data-name="Ellipse 1" class="cls-4" cx="308.01" cy="580.14" rx="293.76" ry="19.76"/></g><g id="Group_71" data-name="Group 71"><g id="Group_55" data-name="Group 55"><g id="Group_47" data-name="Group 47"><g id="Group_45" data-name="Group 45"><g id="Group_3" data-name="Group 3"><path id="Path_4" data-name="Path 4" class="cls-5" d="M420.52,587.59A420,420,0,0,0,483,592.74a383.62,383.62,0,0,0,58.9-5.15l-2.35-5.22c-10.33-22.94-49.44-14-58.32-37.7h0c-7.4,23.68-48,14.75-58.32,37.7Z" transform="translate(3.23 -11.01)"/></g><g id="Group_4" data-name="Group 4"><rect id="Rectangle_3" data-name="Rectangle 3" class="cls-5" x="477.03" y="398.53" width="16.28" height="152.42"/></g><g id="Group_5" data-name="Group 5"><path id="Path_5" data-name="Path 5" class="cls-6" d="M478.42,549.46l-7.1-15.53-15.56,5.73,4.32,16Z" transform="translate(3.23 -11.01)"/></g><g id="Group_6" data-name="Group 6"><path id="Path_6" data-name="Path 6" class="cls-7" d="M478.4,549.22l3.73,12.69-16.45,5.2s-37.15,15.6-44.07,8.37c-3.17-3.31,8.92-6.58,16.68-11.72s20-12.4,20-12.4A78.57,78.57,0,0,0,478.4,549.22Z" transform="translate(3.23 -11.01)"/></g><g id="Group_7" data-name="Group 7"><path id="Path_7" data-name="Path 7" class="cls-6" d="M396.2,572.42l-2.43-16.91-16.55,1.1-.37,16.55Z" transform="translate(3.23 -11.01)"/></g><g id="Group_8" data-name="Group 8"><path id="Path_8" data-name="Path 8" class="cls-7" d="M396.24,572.18v13.23l-17.26.34s-40,4.47-44.63-4.42c-2.11-4.07,10.42-3.8,19.31-6.53s22.64-6.26,22.64-6.26A78.61,78.61,0,0,0,396.24,572.18Z" transform="translate(3.23 -11.01)"/></g><g id="Group_11" data-name="Group 11"><g id="Group_9" data-name="Group 9"><path id="Path_9" data-name="Path 9" class="cls-8" d="M246.57,281l22.87-7.58,20.24,5.12c11.4-3,15.19-2.8,38.52-8.8,19.7-5.06,42.33-15.17,42.33-15.17l16.77-28.12c10.86,1,33.65,12.83,33.65,12.83s-31.18,42.42-40.06,45.38-68.74,10.26-91.56,7.64c-7.18-.82-21.25-8.43-21.25-8.43l-18,3L236,296.34l-2.46-2,5.6-6.13Z" transform="translate(3.23 -11.01)"/></g><g id="Group_10" data-name="Group 10"><path id="Path_10" data-name="Path 10" class="cls-9" d="M404.6,172.89s29.07,4.86,28.58,31c-.32,17-23.68,48.83-23.68,48.83S396.68,235,380.89,230c0,0,10.25-30.07,13.39-39.48C398.22,178.74,404.6,172.89,404.6,172.89Z" transform="translate(3.23 -11.01)"/></g></g><g id="Group_12" data-name="Group 12"><rect id="Rectangle_4" data-name="Rectangle 4" class="cls-5" x="456.31" y="394.09" width="57.71" height="31.08"/></g><g id="Group_13" data-name="Group 13"><path id="Path_11" data-name="Path 11" class="cls-5" d="M460.81,284.23q-4.26-56.39-6.12-112.92c35.67-15.88,115.25-8.79,122.69,14.78,7.9,25-22.2,96.18-22.2,122.82s10.36,45.87,11.84,57.71-5.92,20.72-5.92,20.72H469.88C467.56,352.92,463.4,318.57,460.81,284.23Z" transform="translate(3.23 -11.01)"/></g><g id="Group_14" data-name="Group 14"><path id="Path_12" data-name="Path 12" class="cls-10" d="M460.81,284.23q-4.44-58.77-6.27-117.68c39.2-9.16,101.5-1.18,108,19.54,7.9,25-22.2,96.18-22.2,122.82s10.36,45.87,11.84,57.71-5.92,20.72-5.92,20.72H469.88C467.56,352.92,463.4,318.57,460.81,284.23Z" transform="translate(3.23 -11.01)"/></g><g id="Group_15" data-name="Group 15"><path id="Rectangle_5" data-name="Rectangle 5" class="cls-10" d="M553.14,415.45H389.44V387.34H561.1V407.5a8,8,0,0,1-8,7.95Z" transform="translate(3.23 -11.01)"/></g><g id="Group_16" data-name="Group 16"><path id="Path_13" data-name="Path 13" class="cls-11" d="M422,322.72s-82.12,48.79-87,68.93c-5.83,24,33.56,166.39,33.56,166.39,9.29,6.25,26.5,4.14,32.84-1.54,0,0-31.68-121.8-28.23-129.95,8.45-19.91,80.4-43.65,103.09-65.35s24.67-42.42,24.67-42.42Z" transform="translate(3.23 -11.01)"/></g><g id="Group_17" data-name="Group 17"><path id="Path_14" data-name="Path 14" class="cls-12" d="M515.88,300.9s28,58.32,2.81,82c-11.51,10.84-80.41,1-84.36,11.84l41.6,138.19s-7.34,4.46-22.13,11.86c0,0-86.55-152.52-77.67-172.25s68.56-31.07,71.52-41.93,4.93-28.6,4.93-28.6Z" transform="translate(3.23 -11.01)"/></g><g id="Group_18" data-name="Group 18"><path id="Path_15" data-name="Path 15" class="cls-6" d="M397.22,142.71c1.79,6.77,5,14.23,11.61,16.43,6.11,2,12.6-1.24,18.13-4.54,6.51-3.87,13.1-8.12,17.27-14.45,6.31-9.6,11.42-21.33,10.71-32.8-.25-4-6.18-9-8.64-12.25-1.74-2.29-4.34-3.74-6.92-5a72.62,72.62,0,0,0-19.44-6.08c-11.23-1.83-23.71.68-25.95,13C391.31,111.73,393.46,128.44,397.22,142.71Z" transform="translate(3.23 -11.01)"/></g><g id="Group_19" data-name="Group 19"><path id="Path_16" data-name="Path 16" class="cls-13" d="M413.63,116.57a3.07,3.07,0,1,0,3.07-3.07,3.07,3.07,0,0,0-3.07,3.07Z" transform="translate(3.23 -11.01)"/></g><g id="Group_20" data-name="Group 20"><path id="Path_17" data-name="Path 17" class="cls-13" d="M396.21,116.57a3.07,3.07,0,1,0,3.07-3.07,3.07,3.07,0,0,0-3.07,3.07Z" transform="translate(3.23 -11.01)"/></g><g id="Group_24" data-name="Group 24"><g id="Group_21" data-name="Group 21"><path id="Path_18" data-name="Path 18" class="cls-13" d="M419.44,127.73A10.69,10.69,0,1,1,430.14,117,10.68,10.68,0,0,1,419.44,127.73Zm0-19.4a8.72,8.72,0,1,0,8.73,8.72,8.71,8.71,0,0,0-8.73-8.72Z" transform="translate(3.23 -11.01)"/></g><g id="Group_22" data-name="Group 22"><path id="Path_19" data-name="Path 19" class="cls-13" d="M403.32,111.35l-1.58-1.19a7.29,7.29,0,0,1,5.48-2.89,8.39,8.39,0,0,1,6.49,2.59l-1.44,1.36a6.44,6.44,0,0,0-4.94-2A5.32,5.32,0,0,0,403.32,111.35Z" transform="translate(3.23 -11.01)"/></g><g id="Group_23" data-name="Group 23"><path id="Path_20" data-name="Path 20" class="cls-13" d="M395.83,127.73A10.69,10.69,0,1,1,406.53,117,10.69,10.69,0,0,1,395.83,127.73Zm0-19.4a8.72,8.72,0,1,0,8.73,8.72,8.71,8.71,0,0,0-8.73-8.72Z" transform="translate(3.23 -11.01)"/></g></g><g id="Group_25" data-name="Group 25"><path id="Path_21" data-name="Path 21" class="cls-6" d="M476.38,161.17s-.12-2.22-8-4.19c-2.27-.57-5.1-.57-6.9-2.15-6.39-5.59-12.26-16-14.44-23.64a6.76,6.76,0,0,1-.34-3.48q-8,6.78-15.44,14.18c-1.7,1.69-12,.74-10.73,3,.34.64,3,6.63,5.54,12.43-5,3.26-10.48,7.53-10.48,7.53l-6.9,38.47,20.22,11.35s22.7-4.93,37.49-12.83S476.38,161.17,476.38,161.17Z" transform="translate(3.23 -11.01)"/></g><g id="Group_26" data-name="Group 26"><path id="Path_22" data-name="Path 22" class="cls-14" d="M468.37,157s-5.92,10.85-20.72,17.27-28.12-12.83-28.12-12.83L404.6,172.89s-1.35,52.44,5.07,81.05S422,322.72,422,322.72s6.61,9.7,15.06,10.27c10.35.7,24.59-7.4,47.09-3.36,25,4.47,43.55.54,43.55.54s-19.2-93.84-23.64-112.59-16-57.14-16-57.14A159.06,159.06,0,0,0,468.37,157Z" transform="translate(3.23 -11.01)"/></g><g id="Group_30" data-name="Group 30"><g id="Group_27" data-name="Group 27"><path id="Rectangle_6" data-name="Rectangle 6" class="cls-5" d="M293.37,296.71H204a3,3,0,0,1-3-3h0v-4.44h92.38v7.45Z" transform="translate(3.23 -11.01)"/></g><g id="Group_28" data-name="Group 28"><path id="Path_23" data-name="Path 23" class="cls-10" d="M234.36,204.37a6.09,6.09,0,0,1,5.73,4l29.34,81-1.81.75.48,1.42L201,289.26l-28.57-76.68a6.1,6.1,0,0,1,3.59-7.85,6.17,6.17,0,0,1,2.13-.38Z" transform="translate(3.23 -11.01)"/></g><g id="Group_29" data-name="Group 29"><path id="Path_24" data-name="Path 24" class="cls-5" d="M211.4,252.3c2,7.64,5.9,13.73,8.72,13.61s3.5-6.42,1.51-14.06-5.89-13.73-8.72-13.61S209.41,244.66,211.4,252.3Z" transform="translate(3.23 -11.01)"/></g></g><g id="Group_32" data-name="Group 32"><g id="Group_31" data-name="Group 31"><path id="Path_25" data-name="Path 25" class="cls-13" d="M407.28,109.94c.12,5.91-2.27,10.35-4.74,15.53-1.08,2.27-2,5.38-1.11,7.87a.91.91,0,0,0,.85.65c2.29-.07,4.92-1.65,7-2.58.86-.39.25-1.86-.65-1.53s-2,.87-3,1.14c-2.13.58-2.49.93-2.58-1.33-.1-2.78,2.39-5.82,3.43-8.35a23.91,23.91,0,0,0,1.76-11.4c-.06-.62-1-.65-1,0Z" transform="translate(3.23 -11.01)"/></g></g><g id="Group_34" data-name="Group 34"><g id="Group_33" data-name="Group 33"><path id="Path_26" data-name="Path 26" class="cls-13" d="M415.21,104.49A17,17,0,0,0,419,105c1.33.12,2.64.3,4,.45,1.7.2,2.12-2.74.41-3-2.5-.4-5.64-1-8.13-.4a1.3,1.3,0,0,0-.86,1.62,1.32,1.32,0,0,0,.86.86Z" transform="translate(3.23 -11.01)"/></g></g><g id="Group_36" data-name="Group 36"><g id="Group_35" data-name="Group 35"><path id="Path_27" data-name="Path 27" class="cls-13" d="M395.54,104.53c2.09.34,4.23,0,6.35.13s1.93-2.85,0-3.06c-2.2-.24-4.77-.19-6.58,1.2-.55.43-.67,1.58.23,1.73Z" transform="translate(3.23 -11.01)"/></g></g><g id="Group_38" data-name="Group 38"><g id="Group_37" data-name="Group 37"><path id="Path_28" data-name="Path 28" class="cls-13" d="M429.19,115.07a32.89,32.89,0,0,0,6.07-1.67,27,27,0,0,0,6-2.15.71.71,0,0,0-.36-1.31,21,21,0,0,0-6.14,1.52,24.78,24.78,0,0,0-5.86,2.41C428.37,114.18,428.5,115.15,429.19,115.07Z" transform="translate(3.23 -11.01)"/></g></g><g id="Group_44" data-name="Group 44"><g id="Group_39" data-name="Group 39"><path id="Path_29" data-name="Path 29" class="cls-12" d="M413.81,99.62c-9.6-.63-19.7-.69-28.09-5.06-4.08-2.12-7.74-5.51-8.52-9.79s2.35-9.24,7-9.55a6,6,0,0,0,2.81-.44c1-.64,1.2-1.94,1.35-3.08,1-7.61,7.45-15.28,15.72-15.1,6.74.15,13,5.35,19.55,3.77a28,28,0,0,0,5.61-2.46,30.21,30.21,0,0,1,18.2-2.47c6.48,1.15,13.34,6.25,11.76,12.19-.53,2-2,3.7-2.33,5.71C455.54,80.52,467,84.1,469.23,91.08c2.06,6.34-4.22,12.67-3.74,19.28.27,3.68,2.41,8-.38,10.61-1.5,1.4-4.05,1.74-5.05,3.48-1.36,2.36,1.18,5,1.4,7.71.28,3.31-3.5,6.08-7.07,5.8a10,10,0,0,1-7.93-6c-1.4-3.06-1.51-6.48-1.4-9.79,6-1.7,9.76-11.66,4.07-14.2-3-1.36-6.25,1.93-7.4,4.73C435.73,103.2,426.15,99.62,413.81,99.62Z" transform="translate(3.23 -11.01)"/></g><g id="Group_40" data-name="Group 40"><path id="Path_30" data-name="Path 30" class="cls-12" d="M438.33,114.94q-3,6.89-6,13.78a13.34,13.34,0,0,1-3.18,5c-2.33,2-5.74,2.12-8.74,1.51s-8.75-2.26-11.8-2c-7,.6-12.12,3.94-12.56,4.78-.9,1.7.36,4.36.39,6.28a11,11,0,0,1-1.34,5.84,18.83,18.83,0,0,1-2.6,3.1c-2.48,2.64-4.71,5.93-4.51,9.54.28,4.94,4.83,8.39,8.95,11.12,2.63,1.75,5.37,3.54,8.48,4.12a23.69,23.69,0,0,0,6.35,0A63.79,63.79,0,0,0,424.88,176a21.3,21.3,0,0,0,10.94-7.12c2.27-3,3.38-6.73,4.44-10.36,1.71-5.87,3.39-11.82,3.61-17.92.2-5.73-.9-11.4-1.49-17.1a94.87,94.87,0,0,1-.32-15c0-.61.1-2.08-.8-2.2s-.64,1.35-.78,2A36.14,36.14,0,0,1,438.33,114.94Z" transform="translate(3.23 -11.01)"/></g><g id="Group_41" data-name="Group 41"><path id="Path_31" data-name="Path 31" class="cls-6" d="M401.54,141.14a5.62,5.62,0,0,0,1.15,6.24,3.51,3.51,0,0,0,2.74,1.11,2.06,2.06,0,0,0,1.88-2c0-.38-.18-.78,0-1.1a1.2,1.2,0,0,1,1-.38c1.36-.07,3,0,3.66,1.22.2.36.26.79.48,1.14a2.78,2.78,0,0,0,2.68.86,15.91,15.91,0,0,0,4.14-.92,4.68,4.68,0,0,0,1.85-1.09,2,2,0,0,0,.52-2,2.9,2.9,0,0,0-1.2-1.3C416.18,139.86,405,133.71,401.54,141.14Z" transform="translate(3.23 -11.01)"/></g><g id="Group_43" data-name="Group 43"><g id="Group_42" data-name="Group 42"><path id="Path_32" data-name="Path 32" class="cls-13" d="M403.65,141.09c2.24,1.41,6.94,1.49,9.1-.15a.7.7,0,0,0-.36-1.3c-1.41,0-2.78.56-4.21.64s-2.85-.22-4.27-.15a.52.52,0,0,0-.26,1Z" transform="translate(3.23 -11.01)"/></g></g></g></g><g id="Group_46" data-name="Group 46"><path id="Path_33" data-name="Path 33" class="cls-10" d="M463.89,395.75s-2.84-79.61,14.93-84.87,56.87-3.76,56.87-3.76l3.56,14.27s-51.19-3.75-58.3,6,0,69.1,0,69.1Z" transform="translate(3.23 -11.01)"/></g></g><g id="Group_54" data-name="Group 54"><g id="Group_48" data-name="Group 48"><path id="Path_34" data-name="Path 34" class="cls-6" d="M320.68,278.49l22.86-7.58L363.78,276c11.4-3,15.19-2.8,38.53-8.8,19.7-5.06,42.33-15.17,42.33-15.17l25.67-38.36c10.85,1,24.74,23.07,24.74,23.07S463.87,279.19,455,282.15s-76.6,10.82-99.42,8.2c-7.19-.82-19.9-8.69-19.9-8.69l-11.53,2.7-14.07,9.5-2.45-2,5.6-6.13Z" transform="translate(3.23 -11.01)"/></g><g id="Group_49" data-name="Group 49"><path id="Path_35" data-name="Path 35" class="cls-9" d="M488.1,160.43s30.58,4.94,30.09,31.08c-.32,17-23.68,48.83-23.68,48.83s-12.82-17.75-28.61-22.69c0,0,12.33-24.17,13.32-34S488.1,160.43,488.1,160.43Z" transform="translate(3.23 -11.01)"/></g><g id="Group_53" data-name="Group 53"><g id="Group_50" data-name="Group 50"><path id="Rectangle_7" data-name="Rectangle 7" class="cls-10" d="M361.81,296.71H272.44a3,3,0,0,1-3-3h0v-4.44h92.38v7.45Z" transform="translate(3.23 -11.01)"/></g><g id="Group_51" data-name="Group 51"><rect id="Rectangle_8" data-name="Rectangle 8" class="cls-5" x="325.63" y="280.62" width="30.79" height="2.31"/></g><g id="Group_52" data-name="Group 52"><rect id="Rectangle_9" data-name="Rectangle 9" class="cls-5" x="316.45" y="280.62" width="4.55" height="2.31"/></g></g></g></g><g id="Group_61" data-name="Group 61"><g id="Group_59" data-name="Group 59"><g id="Group_56" data-name="Group 56"><path id="Path_36" data-name="Path 36" class="cls-10" d="M128.37,265.43l-4.15-30.56,1.49-5.56L129,234l3.84,31.16Z" transform="translate(3.23 -11.01)"/></g><g id="Group_57" data-name="Group 57"><path id="Path_37" data-name="Path 37" class="cls-10" d="M148.48,267.44l4.34-30.54,3-4.94,1.93,5.39-4.8,31Z" transform="translate(3.23 -11.01)"/></g><g id="Group_58" data-name="Group 58"><path id="Path_38" data-name="Path 38" class="cls-10" d="M134.46,269.8l.38-31.29,2.67-4.93,2.29,5-.43,31.24Z" transform="translate(3.23 -11.01)"/></g></g><g id="Group_60" data-name="Group 60"><path id="Path_39" data-name="Path 39" class="cls-9" d="M153,300H129.39l-4.29-39.23h31.07Z" transform="translate(3.23 -11.01)"/></g></g><g id="Group_70" data-name="Group 70"><g id="Group_62" data-name="Group 62"><path id="Path_40" data-name="Path 40" class="cls-15" d="M458.64,596.75h5.67L400.45,318.88h-12Z" transform="translate(3.23 -11.01)"/></g><g id="Group_63" data-name="Group 63"><path id="Path_41" data-name="Path 41" class="cls-15" d="M285.59,593.84h5.67l41.09-275h-12Z" transform="translate(3.23 -11.01)"/></g><g id="Group_64" data-name="Group 64"><path id="Path_42" data-name="Path 42" class="cls-15" d="M199.53,595.52h5.66L160.05,318.88H148Z" transform="translate(3.23 -11.01)"/></g><g id="Group_65" data-name="Group 65"><path id="Path_43" data-name="Path 43" class="cls-15" d="M40.41,592.58h5.67l54.34-273.7h-12Z" transform="translate(3.23 -11.01)"/></g><g id="Group_66" data-name="Group 66"><rect id="Rectangle_10" data-name="Rectangle 10" class="cls-16" x="138.08" y="295.46" width="299.59" height="12.42"/></g><g id="Group_67" data-name="Group 67"><rect id="Rectangle_11" data-name="Rectangle 11" class="cls-17" x="42.01" y="295.46" width="276.28" height="12.42"/></g><g id="Group_68" data-name="Group 68"><rect id="Rectangle_12" data-name="Rectangle 12" class="cls-17" x="144.74" y="285.07" width="320.42" height="16.62"/></g><g id="Group_69" data-name="Group 69"><rect id="Rectangle_13" data-name="Rectangle 13" class="cls-18" y="285.07" width="297.1" height="16.62"/></g></g></g></g></svg>