<svg id="Layer_1" data-name="Layer 1" xmlns="http://www.w3.org/2000/svg" viewBox="0 0 61.13 61.03"><defs><style>.cls-1{fill:#6765da;}.cls-2{fill:#9392c9;}.cls-3{fill:#ffcdbe;}.cls-4{fill:#faa68e;}.cls-5{fill:#e9edf5;}.cls-6{fill:#e8ecf4;}</style></defs><title>sign language</title><g id="Group_86" data-name="Group 86"><circle id="Ellipse_26" data-name="Ellipse 26" class="cls-1" cx="30.47" cy="30.47" r="30.47"/><path id="Path_323" data-name="Path 323" class="cls-2" d="M81.08,48.17c-1.33-8-22-21.75-22-21.75L31.87,73.85A29.55,29.55,0,0,0,62,78.19c6.4-2.84,8.81-5.33,9.45-6C76.53,68.29,82.41,56.18,81.08,48.17Z" transform="translate(-20.14 -19.47)"/><path id="Path_320" data-name="Path 320" class="cls-3" d="M40.17,65l3.28-3.77a5.94,5.94,0,0,0,6-1.2c3.13-2.54,16.94-17.11,16.94-17.11s1.61-3.89-2.5-2.41l-7.51,7.52-.87-.89L65.71,36.75c.26.11,1.56-4.28-2.77-2.41L53.76,43.7l-.86-.86,11-11.15s1.12-4.16-2.78-2.53L51,39.46l-.89-.81,9.32-9.51s1.48-4-2.55-2.38l-8.68,8.76a3.66,3.66,0,0,1-.41,4.29l-3.51,3.66-1-1.17,3.28-3.36a2.34,2.34,0,0,0,.29-3.17c-1.27-1.8-3.67-.13-3.67-.13l-9.87,10a6.29,6.29,0,0,0-.72,5.45L29.88,54Z" transform="translate(-20.14 -19.47)"/><path id="Path_319" data-name="Path 319" class="cls-4" d="M56.6,72.5l1-4.69A5.73,5.73,0,0,0,62.16,64c1.47-3.59,6.38-22.26,6.38-22.26s-.44-4-3.23-.88l-2.85,9.81-1.15-.34,3.76-13.48c.27,0-.66-4.34-3.44-.76L58.21,48.23l-1.12-.32,4.1-14.48s-1-4-3.52-.85L53.91,45.94l-1.12-.27,3.46-12.33s-.61-4.08-3.24-.83l-3.28,11.4a3.49,3.49,0,0,1,1.64,3.8L50.1,52.43l-1.34-.56L50,47.52a2.26,2.26,0,0,0-1.22-2.81c-1.9-.93-3.15,1.59-3.15,1.59l-3.71,13a6.09,6.09,0,0,0,1.9,4.93l-1,3.71Z" transform="translate(-20.14 -19.47)"/><path id="Path_321" data-name="Path 321" class="cls-5" d="M56.23,80.12l2.19-7.91-17-5.27-3,11a18.14,18.14,0,0,0,5.2,1.85,24.52,24.52,0,0,0,3.42.63c.89.09,1.85.09,2.93.12.92,0,3.77,0,4.81-.12C55.56,80.29,55.2,80.21,56.23,80.12Z" transform="translate(-20.14 -19.47)"/><path id="Path_322" data-name="Path 322" class="cls-6" d="M22,60.63a37.35,37.35,0,0,0,3.61,7,20.78,20.78,0,0,0,6,6.24l9.24-9.19-11-11.82Z" transform="translate(-20.14 -19.47)"/></g></svg>