<svg id="Layer_1" data-name="Layer 1" xmlns="http://www.w3.org/2000/svg" viewBox="0 0 60.4 60.4"><defs><style>.cls-1{fill:#6765da;}.cls-2{fill:#fff;}</style></defs><title>sound</title><g id="Group_85" data-name="Group 85"><path id="Path_314" data-name="Path 314" class="cls-1" d="M80.2,50A30.2,30.2,0,1,1,50,19.8,30.2,30.2,0,0,1,80.2,50Z" transform="translate(-19.8 -19.8)"/><path id="Path_315" data-name="Path 315" class="cls-2" d="M36.91,40.63H28.24a2.19,2.19,0,0,0-2.19,2.19V56.14a2.2,2.2,0,0,0,2.19,2.2h8.67a2.18,2.18,0,0,1,1.11.3L51.91,71.57a2.2,2.2,0,0,0,3.3-1.89V29.29A2.2,2.2,0,0,0,53,27.1a2.12,2.12,0,0,0-1.11.3L38,40.33a2.18,2.18,0,0,1-1.11.3Z" transform="translate(-19.8 -19.8)"/><path id="Path_316" data-name="Path 316" class="cls-2" d="M63.06,63.58a1,1,0,0,1-.74-1.77,16.68,16.68,0,0,0,0-23.57,1,1,0,0,1,1.47-1.47,18.75,18.75,0,0,1,0,26.51A1,1,0,0,1,63.06,63.58Z" transform="translate(-19.8 -19.8)"/><path id="Path_317" data-name="Path 317" class="cls-2" d="M59.37,59.37a1,1,0,0,1-.73-1.77,11.5,11.5,0,0,0,0-16.23,1,1,0,1,1,1.44-1.5l0,0a13.57,13.57,0,0,1,0,19.18,1.07,1.07,0,0,1-.74.3Z" transform="translate(-19.8 -19.8)"/><path id="Path_318" data-name="Path 318" class="cls-2" d="M66.12,68.75a1.05,1.05,0,0,1-1.05-1,1.08,1.08,0,0,1,.31-.74,24,24,0,0,0,0-33.92l0,0a1,1,0,0,1,0-1.47,1.05,1.05,0,0,1,1.47,0h0a26.06,26.06,0,0,1,0,36.85l0,0a1,1,0,0,1-.73.31Z" transform="translate(-19.8 -19.8)"/></g></svg>