<svg id="Layer_1" data-name="Layer 1" xmlns="http://www.w3.org/2000/svg" viewBox="0 0 126.65 154.68"><defs><style>.cls-1,.cls-3{fill:none;}.cls-1{stroke:#fff;}.cls-2{fill:#fff;}.cls-3{stroke:#aeaeae;}</style></defs><title>اتصل بنا مع تغير اللون</title><path id="Path_408" data-name="Path 408" class="cls-1" d="M127.05,153.46v9.08a79,79,0,0,1-26,9.22q-3,.5-6.08.77c-1.27.11-2.55.19-3.85.24-1,0-2.11.07-3.18.07-2.37,0-4.72-.11-7-.31a79,79,0,0,1-32.11-10v-9.08a29.53,29.53,0,0,1,21.88-28.53c.46-.13.92-.24,1.4-.34a29.14,29.14,0,0,1,3.84-.57c.8-.06,1.6-.1,2.42-.1H97.51a29.36,29.36,0,0,1,6.27.67l.34.07,1,.25h0a29.56,29.56,0,0,1,21.88,28.53Z" transform="translate(-32.95 -18.66)"/><path id="Path_409" data-name="Path 409" class="cls-1" d="M104.52,124.83l.57.3v.24L94.92,172.53q-3.48.3-7,.31c-2.38,0-4.72-.11-7-.31l-10.24-47.6s1.15-.5,9.62-.53S104.52,124.83,104.52,124.83Z" transform="translate(-32.95 -18.66)"/><path id="Path_410" data-name="Path 410" class="cls-1" d="M95.82,134.58,87.89,147.3,80,134.58" transform="translate(-32.95 -18.66)"/><path id="Path_411" data-name="Path 411" class="cls-1" d="M95.21,172.5q-3.61.34-7.32.34t-7.32-.34L87.89,144Z" transform="translate(-32.95 -18.66)"/><path id="Path_421" data-name="Path 421" class="cls-1" d="M123.67,93.36c0,4.87-3.31,6.91,1.36,7.67a9.8,9.8,0,1,0,3.13-19.35,9.67,9.67,0,0,0-3.13,0c-1.43.23-.3,1.56-.63,2.64a22.51,22.51,0,0,0-.73,7Z" transform="translate(-32.95 -18.66)"/><path id="Path_423" data-name="Path 423" class="cls-1" d="M124.35,72.26V86.14a36.46,36.46,0,0,1-30.61,36l-.18,0a34.68,34.68,0,0,1-5.67.44A36.46,36.46,0,0,1,51.43,86.14V72.26A36.43,36.43,0,0,1,87.84,35.8h0a36.43,36.43,0,0,1,36.46,36.41v.05Z" transform="translate(-32.95 -18.66)"/><path id="Path_424" data-name="Path 424" class="cls-1" d="M130.1,91.35a3.24,3.24,0,1,1-3.23-3.5A3.37,3.37,0,0,1,130.1,91.35Z" transform="translate(-32.95 -18.66)"/><path id="Path_425" data-name="Path 425" class="cls-1" d="M124.36,72.26V86.15a36.48,36.48,0,0,1-30.61,36l-.18,0a36.45,36.45,0,0,1-30.78-36V72.26a31.17,31.17,0,1,1,61.57,0Z" transform="translate(-32.95 -18.66)"/><path id="Path_426" data-name="Path 426" class="cls-1" d="M80.12,84A4.14,4.14,0,1,1,76,79.88,4.14,4.14,0,0,1,80.12,84Z" transform="translate(-32.95 -18.66)"/><path id="Path_427" data-name="Path 427" class="cls-1" d="M103.93,84a4.14,4.14,0,1,1-4.14-4.14A4.14,4.14,0,0,1,103.93,84Z" transform="translate(-32.95 -18.66)"/><path id="Path_428" data-name="Path 428" class="cls-1" d="M79.29,83.29a1.78,1.78,0,1,1-1.78-1.77h0A1.78,1.78,0,0,1,79.29,83.29Z" transform="translate(-32.95 -18.66)"/><path id="Path_429" data-name="Path 429" class="cls-1" d="M103.29,83.29a1.78,1.78,0,1,1-1.77-1.77A1.77,1.77,0,0,1,103.29,83.29Z" transform="translate(-32.95 -18.66)"/><path id="Path_430" data-name="Path 430" class="cls-1" d="M92,92.81H83.75a1.78,1.78,0,0,1,0-3.56H92a1.78,1.78,0,0,1,0,3.56Z" transform="translate(-32.95 -18.66)"/><path id="Path_431" data-name="Path 431" class="cls-1" d="M87.89,104.1A18.42,18.42,0,0,1,79,101.81,1.62,1.62,0,0,1,80.56,99h0a15.11,15.11,0,0,0,14.66,0,1.62,1.62,0,0,1,1.56,2.85h0a18.42,18.42,0,0,1-8.89,2.29Z" transform="translate(-32.95 -18.66)"/><path id="Path_432" data-name="Path 432" class="cls-2" d="M124.35,59.66,125,73.88h-7.4V62.74l-49-9.1L50.83,73.87l.59-14.21A29.35,29.35,0,0,1,80.78,30.31H95c.39,0,.78,0,1.16,0a29.36,29.36,0,0,1,28.2,29.33Z" transform="translate(-32.95 -18.66)"/><path id="Path_434" data-name="Path 434" class="cls-3" d="M79.38,133l-3.27,4.24-8.91,2.38L61.94,141l-4.11-3.79-.34-.32c-11.57-10.8-17-19.3-22.08-34.3-.06-.15-.1-.3-.15-.45l-1.75-5.3L37,92.64l5.85-7.12L48,84.3l.81,2,2.27,5.79,3.29,8.37-4.28,3.92-2.9,2.64c1.33,4.25,7.78,14.27,11.1,17.24l3.6-1.54,5.34-2.29L73.52,127l4.33,4.46h0Z" transform="translate(-32.95 -18.66)"/><path id="Path_435" data-name="Path 435" class="cls-3" d="M67.25,120.47l-5.33,2.29,14.19,14.47L79.38,133Z" transform="translate(-32.95 -18.66)"/><path id="Path_436" data-name="Path 436" class="cls-3" d="M54.4,100.51l-4.29,3.91L42.82,85.51,48,84.29Z" transform="translate(-32.95 -18.66)"/><path id="Path_437" data-name="Path 437" class="cls-3" d="M67.2,139.61,61.94,141l-4.11-3.78-.34-.32c-11.57-10.8-17-19.3-22.08-34.31-.06-.15-.1-.3-.15-.45l-1.75-5.3L37,92.64s1.1,28.74,30.23,47Z" transform="translate(-32.95 -18.66)"/><path id="Path_438" data-name="Path 438" class="cls-1" d="M57.41,120.72l-4.94,4.93a6.73,6.73,0,0,1-10.68-8A7.09,7.09,0,0,1,43,116.13l4.94-4.93a6.73,6.73,0,0,1,9.52,9.52Z" transform="translate(-32.95 -18.66)"/><path id="Path_439" data-name="Path 439" class="cls-1" d="M57.41,120.73l-4.94,4.93a5,5,0,1,1-8.81-4.72,4.94,4.94,0,0,1,2.05-2L50.64,114a5,5,0,0,1,8.82,4.72A5.06,5.06,0,0,1,57.41,120.73Z" transform="translate(-32.95 -18.66)"/><path id="Path_440" data-name="Path 440" class="cls-1" d="M51,163.79A79.26,79.26,0,0,1,40.33,157c-1.76-1.31-3.46-2.7-5.1-4.15a76.75,76.75,0,0,1,4.92-29.35l4.28,1.62,9.23,3.48A62.36,62.36,0,0,0,51,163.79Z" transform="translate(-32.95 -18.66)"/><path id="Path_441" data-name="Path 441" class="cls-1" d="M51,163.79A79.26,79.26,0,0,1,40.33,157a76.77,76.77,0,0,1,4.1-31.88l9.23,3.48A62.37,62.37,0,0,0,51,163.79Z" transform="translate(-32.95 -18.66)"/><rect id="Rectangle_116" data-name="Rectangle 116" class="cls-1" x="66.99" y="0.5" width="59.16" height="44.47"/><path id="Path_442" data-name="Path 442" class="cls-1" d="M130.79,63.73l-7.15,12.2,27.22-12.2Z" transform="translate(-32.95 -18.66)"/><path id="Path_443" data-name="Path 443" class="cls-1" d="M122.62,41.39a4.17,4.17,0,1,1-4.17-4.17h0A4.17,4.17,0,0,1,122.62,41.39Z" transform="translate(-32.95 -18.66)"/><path id="Path_444" data-name="Path 444" class="cls-1" d="M133.69,41.39a4.17,4.17,0,1,1-4.17-4.17h0A4.17,4.17,0,0,1,133.69,41.39Z" transform="translate(-32.95 -18.66)"/><path id="Path_445" data-name="Path 445" class="cls-1" d="M144.75,41.39a4.17,4.17,0,1,1-4.17-4.17h0A4.17,4.17,0,0,1,144.75,41.39Z" transform="translate(-32.95 -18.66)"/></svg>