<svg id="Layer_1" data-name="Layer 1" xmlns="http://www.w3.org/2000/svg" viewBox="0 0 158.96 159.01"><defs><style>.cls-1{fill:#23c0e9;}.cls-2{fill:#3d4159;}.cls-3{fill:#f2f0ec;}.cls-4{fill:#f74f4f;}.cls-5{fill:#d8d5d0;}.cls-6{fill:#2a2f4f;}.cls-7{fill:#eab599;}.cls-8{fill:#f6caae;}.cls-9{fill:#fff;}.cls-10{fill:#a5c6d9;}.cls-11{fill:#2ba1cf;}</style></defs><title>اتصل بنا</title><g id="Group_109" data-name="Group 109"><path id="Path_407" data-name="Path 407" class="cls-1" d="M184,104.48a79.44,79.44,0,0,1-127,63.69c-1.76-1.32-3.46-2.7-5.1-4.16A79.48,79.48,0,1,1,184,104.48Z" transform="translate(-25 -25)"/><path id="Path_408" data-name="Path 408" class="cls-2" d="M143.64,164.58v9.08a79.13,79.13,0,0,1-26,9.22q-3,.5-6.08.77c-1.27.11-2.56.19-3.85.24-1.06.05-2.12.07-3.18.07-2.38,0-4.72-.1-7-.31a79,79,0,0,1-32.12-10v-9.08A29.54,29.54,0,0,1,87.2,136.05c.47-.13.93-.24,1.4-.34a31.35,31.35,0,0,1,3.85-.57c.8-.06,1.6-.1,2.42-.1H114.1a29.2,29.2,0,0,1,6.26.67l.35.07,1,.25h0a29.57,29.57,0,0,1,21.89,28.53Z" transform="translate(-25 -25)"/><path id="Path_409" data-name="Path 409" class="cls-3" d="M121.82,135.71l-.07.33-10.24,47.61c-2.31.2-4.66.31-7,.31s-4.72-.1-7-.31l-10.23-47.6-.08-.34Z" transform="translate(-25 -25)"/><path id="Path_410" data-name="Path 410" class="cls-4" d="M112.41,145.7l-7.93,12.72L96.55,145.7" transform="translate(-25 -25)"/><path id="Path_411" data-name="Path 411" class="cls-4" d="M111.8,183.62q-3.61.34-7.32.34t-7.32-.33l7.32-28.52Z" transform="translate(-25 -25)"/><path id="Path_412" data-name="Path 412" class="cls-5" d="M104.48,147.14l-13.3,7.39-4.05-18.82,8.26-4.86" transform="translate(-25 -25)"/><path id="Path_413" data-name="Path 413" class="cls-5" d="M104.48,147.14l13.3,7.39,4-18.82-8.26-4.86" transform="translate(-25 -25)"/><path id="Path_414" data-name="Path 414" class="cls-6" d="M130.92,138.68l-8.6,22.42h4.22l-9,21.78q-3,.5-6.08.77c-1.27.11-2.56.2-3.85.24l14.16-49.8Z" transform="translate(-25 -25)"/><path id="Path_415" data-name="Path 415" class="cls-6" d="M77.94,138.68l8.6,22.42H82.32l9,21.78q3,.5,6.07.77c1.27.11,2.56.2,3.85.24L87.13,134.42Z" transform="translate(-25 -25)"/><path id="Path_416" data-name="Path 416" class="cls-7" d="M115,123.67V136.6a10.54,10.54,0,1,1-21.08,0V123.67Z" transform="translate(-25 -25)"/><path id="Path_417" data-name="Path 417" class="cls-8" d="M115,135.79v.81a7.62,7.62,0,1,1-14.43,4.9,7.52,7.52,0,0,1-.33-3.52c.7,0,1.41.06,2.12.06A36.57,36.57,0,0,0,115,135.79Z" transform="translate(-25 -25)"/><path id="Path_418" data-name="Path 418" class="cls-8" d="M75.57,102.47a9.8,9.8,0,1,1-9.8-9.8,10.29,10.29,0,0,1,1.57.13A9.81,9.81,0,0,1,75.57,102.47Z" transform="translate(-25 -25)"/><path id="Path_419" data-name="Path 419" class="cls-7" d="M75.57,102.47a9.8,9.8,0,0,1-8.23,9.68,36.72,36.72,0,0,1,0-19.35,9.8,9.8,0,0,1,8.23,9.67Z" transform="translate(-25 -25)"/><path id="Path_420" data-name="Path 420" class="cls-7" d="M69.27,102.47a3.5,3.5,0,1,1-3.5-3.5,3.49,3.49,0,0,1,3.5,3.5Z" transform="translate(-25 -25)"/><path id="Path_421" data-name="Path 421" class="cls-8" d="M133.38,102.47a9.8,9.8,0,1,0,9.8-9.8,10.39,10.39,0,0,0-1.57.13A9.81,9.81,0,0,0,133.38,102.47Z" transform="translate(-25 -25)"/><path id="Path_422" data-name="Path 422" class="cls-7" d="M133.38,102.47a9.81,9.81,0,0,0,8.23,9.68,36.52,36.52,0,0,0,0-19.35,9.81,9.81,0,0,0-8.23,9.67Z" transform="translate(-25 -25)"/><path id="Path_423" data-name="Path 423" class="cls-7" d="M140.94,83.38V97.26a36.47,36.47,0,0,1-30.61,36l-.18,0a34.77,34.77,0,0,1-5.67.44A36.46,36.46,0,0,1,68,97.26V83.38a36.43,36.43,0,0,1,36.41-36.46h0a36.43,36.43,0,0,1,36.46,36.41v0Z" transform="translate(-25 -25)"/><path id="Path_424" data-name="Path 424" class="cls-7" d="M146.69,102.47a3.5,3.5,0,1,1-3.5-3.5,3.5,3.5,0,0,1,3.5,3.5Z" transform="translate(-25 -25)"/><path id="Path_425" data-name="Path 425" class="cls-8" d="M141,83.38V97.27a36.47,36.47,0,0,1-30.62,36l-.17,0a36.47,36.47,0,0,1-30.78-36V83.38A31.17,31.17,0,0,1,141,73.66a31.68,31.68,0,0,1,0,9.72Z" transform="translate(-25 -25)"/><path id="Path_426" data-name="Path 426" class="cls-2" d="M96.71,95.14A4.14,4.14,0,1,1,92.58,91a4.13,4.13,0,0,1,4.13,4.14Z" transform="translate(-25 -25)"/><path id="Path_427" data-name="Path 427" class="cls-2" d="M120.52,95.14A4.14,4.14,0,1,1,116.38,91a4.14,4.14,0,0,1,4.14,4.14Z" transform="translate(-25 -25)"/><path id="Path_428" data-name="Path 428" class="cls-9" d="M95.87,94.41a1.77,1.77,0,1,1-1.77-1.77h0A1.77,1.77,0,0,1,95.87,94.41Z" transform="translate(-25 -25)"/><path id="Path_429" data-name="Path 429" class="cls-9" d="M119.88,94.41a1.78,1.78,0,1,1-1.78-1.77A1.78,1.78,0,0,1,119.88,94.41Z" transform="translate(-25 -25)"/><path id="Path_430" data-name="Path 430" class="cls-7" d="M108.61,103.93h-8.27a1.78,1.78,0,0,1,0-3.56h8.27a1.78,1.78,0,0,1,0,3.56Z" transform="translate(-25 -25)"/><path id="Path_431" data-name="Path 431" class="cls-7" d="M104.48,115.22a18.42,18.42,0,0,1-8.89-2.29,1.62,1.62,0,0,1,1.56-2.85h0a15.09,15.09,0,0,0,14.65,0,1.63,1.63,0,1,1,1.57,2.85h0a18.44,18.44,0,0,1-8.89,2.29Z" transform="translate(-25 -25)"/><path id="Path_432" data-name="Path 432" class="cls-6" d="M140.94,70.78V85h-6.79V73.86l-49-9.1L74.8,62.84V85H68V70.78A29.34,29.34,0,0,1,97.37,41.43h14.22c.38,0,.77,0,1.15,0a29.34,29.34,0,0,1,28.2,29.33Z" transform="translate(-25 -25)"/><path id="Path_433" data-name="Path 433" class="cls-2" d="M140.94,70.78V85h-6.79V73.87l-49-9.1a28.1,28.1,0,0,1,55.77,6Z" transform="translate(-25 -25)"/><path id="Path_434" data-name="Path 434" class="cls-10" d="M96,144.11l-3.27,4.24-8.91,2.38-5.26,1.4-4.11-3.78-.34-.32c-11.57-10.8-17-19.3-22.08-34.31-.06-.15-.1-.3-.15-.44L50.1,108l3.46-4.22,5.85-7.12,5.21-1.22.81,2,2.27,5.79L71,111.64l-4.29,3.91-2.89,2.64c1.33,4.25,7.78,14.27,11.1,17.24l3.6-1.54,5.33-2.29,6.27,6.47,4.32,4.47h0Z" transform="translate(-25 -25)"/><path id="Path_435" data-name="Path 435" class="cls-3" d="M83.84,131.59l-5.33,2.29L92.7,148.35,96,144.11Z" transform="translate(-25 -25)"/><path id="Path_436" data-name="Path 436" class="cls-3" d="M71,111.63l-4.29,3.91L59.41,96.63l5.21-1.21Z" transform="translate(-25 -25)"/><path id="Path_437" data-name="Path 437" class="cls-11" d="M83.79,150.73l-5.26,1.4-4.11-3.78-.34-.32C62.5,137.23,57,128.73,52,113.72c-.05-.15-.1-.3-.14-.45L50.1,108l3.46-4.21s1.1,28.74,30.23,47Z" transform="translate(-25 -25)"/><path id="Path_438" data-name="Path 438" class="cls-7" d="M74,131.84l-4.93,4.93a6.73,6.73,0,0,1-10.69-7.94,7,7,0,0,1,1.17-1.58l4.93-4.93A6.74,6.74,0,0,1,74,131.84Z" transform="translate(-25 -25)"/><path id="Path_439" data-name="Path 439" class="cls-8" d="M74,131.85l-4.93,4.93a5,5,0,1,1-8.82-4.72,5.06,5.06,0,0,1,2-2.05l4.94-4.93A5,5,0,1,1,74,131.85Z" transform="translate(-25 -25)"/><path id="Path_440" data-name="Path 440" class="cls-6" d="M67.61,174.91a79.89,79.89,0,0,1-10.7-6.75c-1.75-1.31-3.45-2.7-5.1-4.15a77,77,0,0,1,4.93-29.35L61,136.28l9.23,3.48a62.46,62.46,0,0,0-2.65,35.15Z" transform="translate(-25 -25)"/><path id="Path_441" data-name="Path 441" class="cls-2" d="M67.61,174.91a80.84,80.84,0,0,1-10.7-6.74A77,77,0,0,1,61,136.28l9.23,3.49a62.33,62.33,0,0,0-2.64,35.14Z" transform="translate(-25 -25)"/><rect id="Rectangle_116" data-name="Rectangle 116" class="cls-3" x="91.53" y="5.28" width="59.16" height="44.47"/><path id="Path_442" data-name="Path 442" class="cls-3" d="M146.58,72l-6.35,15.09L168,71.17Z" transform="translate(-25 -25)"/><path id="Path_443" data-name="Path 443" class="cls-2" d="M139.21,52.51A4.17,4.17,0,1,1,135,48.34h0A4.17,4.17,0,0,1,139.21,52.51Z" transform="translate(-25 -25)"/><path id="Path_444" data-name="Path 444" class="cls-2" d="M150.27,52.51a4.17,4.17,0,1,1-4.16-4.17h0A4.17,4.17,0,0,1,150.27,52.51Z" transform="translate(-25 -25)"/><path id="Path_445" data-name="Path 445" class="cls-2" d="M161.34,52.51a4.17,4.17,0,1,1-4.17-4.17h0A4.17,4.17,0,0,1,161.34,52.51Z" transform="translate(-25 -25)"/></g></svg>