<svg id="Layer_1" data-name="Layer 1" xmlns="http://www.w3.org/2000/svg" viewBox="0 0 87 87"><defs><style>.cls-1{fill:#e1fbd8;}.cls-2{fill:#ef4c35;}.cls-3{fill:#dd3e2b;}.cls-4{fill:#d2d2d7;}.cls-5{fill:#e4e4ea;}.cls-6{fill:#f5f5f7;}.cls-7{fill:#694b4b;}.cls-8{fill:#563b3b;}.cls-9{fill:#fbcb99;}.cls-10{fill:#edba89;}.cls-11{fill:#324a5e;}.cls-12{fill:#283d4c;}</style></defs><title>اعمال ادارية</title><circle id="Ellipse_17" data-name="Ellipse 17" class="cls-1" cx="43.5" cy="43.5" r="43.5"/><g id="Group_56" data-name="Group 56"><path id="Path_175" data-name="Path 175" class="cls-2" d="M101.39,116.82l1.18-3.13L99,111l-3.62,2.66,1.31,3.13Z" transform="translate(-56 -56)"/><path id="Path_176" data-name="Path 176" class="cls-3" d="M96.65,116.82l.07.16L95.1,127H103l-1.61-10,0-.15Z" transform="translate(-56 -56)"/><path id="Path_177" data-name="Path 177" class="cls-4" d="M96.11,127l1.63-10.14-1.58-3.77-5.07-4.82,1,7.23L95.31,127Z" transform="translate(-56 -56)"/><path id="Path_178" data-name="Path 178" class="cls-5" d="M102.76,127,106,115.36l1-7.23-5.28,4.94-1.43,3.8L102,127Z" transform="translate(-56 -56)"/><path id="Path_179" data-name="Path 179" class="cls-6" d="M102.84,115.1a1.19,1.19,0,0,0,1.69,0,1.23,1.23,0,0,0,.22-.29l3.32-6.83-4.29-2.83-1,1.82L99,110.91l-3.67-3.58-.71-2.47L89.85,108l3.24,6.67a1.25,1.25,0,0,0,1.62.69,1.39,1.39,0,0,0,.38-.25L99,112.26l3.68,2.71Z" transform="translate(-56 -56)"/><path id="Path_180" data-name="Path 180" class="cls-7" d="M99.51,71h-1A12.48,12.48,0,0,0,86,83.5v5.86s2.84-.29,3.19-1.66h0a1.51,1.51,0,0,0,.29-.45c1.61,0,9.13-.11,13.43-5.3a8.48,8.48,0,0,0,5.59,5.24,1.5,1.5,0,0,0,.3.48l0,0c.35,1.37,3.19,1.66,3.19,1.66V83.5A12.49,12.49,0,0,0,99.51,71Zm9.4,15.77.12-.08h0l-.2.14Zm-.06,0,0,0,0-.08h0l-.05.1Zm-.33.26h0l.31-.22-.07.07-.23.16Zm.26-.08-.1.2h0l.15-.32h0Z" transform="translate(-56 -56)"/><path id="Path_181" data-name="Path 181" class="cls-8" d="M88.22,86.73V83.5A12.5,12.5,0,0,1,100.1,71H98.5A12.49,12.49,0,0,0,86,83.5v5.86a7.29,7.29,0,0,0,2.2-.62Z" transform="translate(-56 -56)"/><path id="Path_182" data-name="Path 182" class="cls-9" d="M110.48,87.55a1.56,1.56,0,0,0-2,1,1.49,1.49,0,0,0-.07.47v4.47A1.57,1.57,0,0,0,110,95.09a1.53,1.53,0,0,0,.47-.07,4,4,0,0,0,.87-.4,7.76,7.76,0,0,1,.89-.74,3.91,3.91,0,0,0-.33-5.52,3.84,3.84,0,0,0-1.43-.81Z" transform="translate(-56 -56)"/><path id="Path_183" data-name="Path 183" class="cls-10" d="M89,87.78a1.58,1.58,0,0,0-1.4-.23,3.91,3.91,0,0,0,0,7.47,1.56,1.56,0,0,0,2-1,1.5,1.5,0,0,0,.08-.47V89.05A1.59,1.59,0,0,0,89,87.78Z" transform="translate(-56 -56)"/><path id="Path_184" data-name="Path 184" class="cls-9" d="M103.32,101.33a1.56,1.56,0,0,0-1.15-.44h-.06a1.35,1.35,0,0,0-.28,0,8.71,8.71,0,0,1-1.84.2H98.07a8.63,8.63,0,0,1-1.89-.22,1.57,1.57,0,0,0-1.88,1.18,1.34,1.34,0,0,0,0,.35V107a1.57,1.57,0,0,0,.47,1.21l3.16,3.07a1.56,1.56,0,0,0,1.1.45h0a1.59,1.59,0,0,0,1.11-.48l3.25-3.38a1.57,1.57,0,0,0,.44-1.09v-4.35A1.56,1.56,0,0,0,103.32,101.33Z" transform="translate(-56 -56)"/><path id="Path_185" data-name="Path 185" class="cls-10" d="M99.3,110.85l-3.16-3.08a1.56,1.56,0,0,1-.47-1.21V102a1.59,1.59,0,0,1,.42-1.08,1.56,1.56,0,0,0-1.81,1.27,1.33,1.33,0,0,0,0,.28V107a1.59,1.59,0,0,0,.48,1.22l3.15,3.07a1.52,1.52,0,0,0,1.1.44h0a1.55,1.55,0,0,0,1.1-.48h0A1.5,1.5,0,0,1,99.3,110.85Z" transform="translate(-56 -56)"/><path id="Path_186" data-name="Path 186" class="cls-9" d="M108.21,86.27a4.41,4.41,0,0,1-.54-.24,8.14,8.14,0,0,1-4.18-3.79l-.08-.13a.52.52,0,0,0-.68-.29l-.13.08h0a22.43,22.43,0,0,1-7.4,3.64c-.81.23-1.63.43-2.46.58a20.17,20.17,0,0,1-2.46.31A1.57,1.57,0,0,0,88.82,88V94.4a9.26,9.26,0,0,0,9.25,9.25H100a9.26,9.26,0,0,0,9.24-9.25V87.74A1.57,1.57,0,0,0,108.21,86.27Z" transform="translate(-56 -56)"/><path id="Path_187" data-name="Path 187" class="cls-10" d="M90.71,94.4V88a1.56,1.56,0,0,1,1.45-1.56,18.54,18.54,0,0,0,2.47-.32,23.81,23.81,0,0,0,9-3.59l-.14-.28-.08-.13a.52.52,0,0,0-.68-.29l-.13.08h0a22.43,22.43,0,0,1-7.4,3.64c-.81.23-1.63.43-2.46.58a20.17,20.17,0,0,1-2.46.31A1.57,1.57,0,0,0,88.82,88V94.4a9.26,9.26,0,0,0,9.24,9.25H100A9.25,9.25,0,0,1,90.71,94.4Z" transform="translate(-56 -56)"/><g id="Group_54" data-name="Group 54"><path id="Path_188" data-name="Path 188" class="cls-11" d="M81,127H96.34l-5.49-19.58-5.66,2.35h0A9.87,9.87,0,0,0,79,119.36V125a1.92,1.92,0,0,0,1.83,2A.67.67,0,0,0,81,127Z" transform="translate(-56 -56)"/><path id="Path_189" data-name="Path 189" class="cls-11" d="M118.83,125v-5.68a9.91,9.91,0,0,0-6.2-9.59l-5.44-2.27L101.72,127H116.8a1.91,1.91,0,0,0,2-1.79Z" transform="translate(-56 -56)"/></g><g id="Group_55" data-name="Group 55"><path id="Path_190" data-name="Path 190" class="cls-12" d="M90.85,107.42l-5.65,2.35h0A9.87,9.87,0,0,0,79,119.36V125a1.93,1.93,0,0,0,1.83,2h.45v-7.64a9.87,9.87,0,0,1,6.19-9.59h0l3.62-1.5Z" transform="translate(-56 -56)"/><path id="Path_191" data-name="Path 191" class="cls-12" d="M112.46,127v-7.81a.89.89,0,0,0-1.78,0V127Z" transform="translate(-56 -56)"/><path id="Path_192" data-name="Path 192" class="cls-12" d="M87.37,127v-7.81a.87.87,0,0,0-.85-.91.88.88,0,0,0-.92.85V127Z" transform="translate(-56 -56)"/></g><path id="Path_193" data-name="Path 193" class="cls-10" d="M99.93,95.16a.59.59,0,0,1,.59.59.6.6,0,0,1-.59.59H98.42a.6.6,0,0,1-.6-.59V92.86a.6.6,0,0,1,1.19,0v2.3Z" transform="translate(-56 -56)"/></g></svg>