<svg id="Layer_1" data-name="Layer 1" xmlns="http://www.w3.org/2000/svg" viewBox="0 0 17.66 22.76"><defs><style>.cls-1{fill:#23c0e9;}.cls-2{fill:#fff;}.cls-3{fill:#ececec;}</style></defs><title>التفاصيل مع تغير اللون</title><path id="Path_68" data-name="Path 68" class="cls-1" d="M108.66,93.49,103.16,88H91v22.76h17.66Z" transform="translate(-91 -88)"/><path id="Path_69" data-name="Path 69" class="cls-2" d="M94.92,97h9.81a.38.38,0,0,0,.41-.37.39.39,0,0,0-.37-.41H94.92a.4.4,0,0,0-.41.37.39.39,0,0,0,.38.41Z" transform="translate(-91 -88)"/><path id="Path_70" data-name="Path 70" class="cls-2" d="M94.92,93.89h3.93a.4.4,0,0,0,0-.79H94.92a.4.4,0,0,0,0,.79Z" transform="translate(-91 -88)"/><path id="Path_71" data-name="Path 71" class="cls-2" d="M104.73,99.38H94.92a.39.39,0,0,0,0,.78h9.81a.39.39,0,1,0,0-.78Z" transform="translate(-91 -88)"/><path id="Path_72" data-name="Path 72" class="cls-2" d="M104.73,102.52H94.92a.39.39,0,1,0,0,.78h9.81a.39.39,0,1,0,0-.78Z" transform="translate(-91 -88)"/><path id="Path_73" data-name="Path 73" class="cls-2" d="M104.73,105.66H94.92a.39.39,0,1,0,0,.78h9.84a.39.39,0,0,0,.41-.37.38.38,0,0,0-.37-.41Z" transform="translate(-91 -88)"/><path id="Path_74" data-name="Path 74" class="cls-3" d="M103.16,88v5.49h5.49Z" transform="translate(-91 -88)"/></svg>