<svg id="Layer_1" data-name="Layer 1" xmlns="http://www.w3.org/2000/svg" viewBox="0 0 117.12 130.53"><defs><style>.cls-1{fill:none;stroke:#fff;}</style></defs><title>الخدمات مع تغير اللون</title><g id="Group_108" data-name="Group 108"><path id="Path_386" data-name="Path 386" class="cls-1" d="M68.3,98l-3.23-1.61a2.24,2.24,0,0,1-1.24-2V86a2.24,2.24,0,0,1,1.24-2L68.3,82.4Z" transform="translate(-41 -35)"/><path id="Path_388" data-name="Path 388" class="cls-1" d="M150.74,134.38l-27.63-6.5a4.35,4.35,0,0,1-1.16-.47L99.56,140.46,78.05,126.78a4.44,4.44,0,0,1-2,1.1l-27.63,6.5a8.93,8.93,0,0,0-6.89,8.7v17.49A4.47,4.47,0,0,0,46,165H153.16a4.46,4.46,0,0,0,4.46-4.46h0V143.08A8.93,8.93,0,0,0,150.74,134.38Z" transform="translate(-41 -35)"/><path id="Path_390" data-name="Path 390" class="cls-1" d="M70.53,60.07l2,42.81A13.39,13.39,0,0,0,77.82,113l9.24,6.93a13.39,13.39,0,0,0,8,2.68H104a13.4,13.4,0,0,0,8-2.68L121.3,113a13.39,13.39,0,0,0,5.34-10.11l2-42.81Z" transform="translate(-41 -35)"/><g id="Group_106" data-name="Group 106"><path id="Path_392" data-name="Path 392" class="cls-1" d="M57.89,150.53l-14.47-13a9,9,0,0,0-1.92,5.54v17.49A4.47,4.47,0,0,0,46,165H61.6v-6.19A11.17,11.17,0,0,0,57.89,150.53Z" transform="translate(-41 -35)"/><path id="Path_393" data-name="Path 393" class="cls-1" d="M141.23,150.53l14.47-13a9,9,0,0,1,1.92,5.54v17.49a4.47,4.47,0,0,1-4.46,4.47H137.52v-6.19A11.17,11.17,0,0,1,141.23,150.53Z" transform="translate(-41 -35)"/></g><path id="Path_394" data-name="Path 394" class="cls-1" d="M105.15,165H94l1.4-20.1h8.37Z" transform="translate(-41 -35)"/><path id="Path_395" data-name="Path 395" class="cls-1" d="M105.15,140.46H94v4.2a2.5,2.5,0,0,0,2.5,2.5h6.17a2.5,2.5,0,0,0,2.5-2.5Z" transform="translate(-41 -35)"/><g id="Group_107" data-name="Group 107"><path id="Path_396" data-name="Path 396" class="cls-1" d="M79.15,122.09l20.41,18.37a77.54,77.54,0,0,0-12.77,8.7,2.86,2.86,0,0,1-4-.36,2.68,2.68,0,0,1-.41-.64l-9.59-21.1,3-4.55a2.23,2.23,0,0,1,3.09-.62Z" transform="translate(-41 -35)"/><path id="Path_397" data-name="Path 397" class="cls-1" d="M120,122.09,99.56,140.46a77.12,77.12,0,0,1,12.77,8.7,2.87,2.87,0,0,0,4-.36,3.27,3.27,0,0,0,.4-.64l9.59-21.1-3-4.55a2.25,2.25,0,0,0-3.1-.62Z" transform="translate(-41 -35)"/></g><path id="Path_398" data-name="Path 398" class="cls-1" d="M113.1,45.28l2.09,14.79C124.75,62,126.13,77,126.32,81.26a4.44,4.44,0,0,0,.71,2.18l3.65,5.66s-1.25-9.35,4.46-15.63C135.14,73.47,137.1,36.34,113.1,45.28Z" transform="translate(-41 -35)"/><path id="Path_399" data-name="Path 399" class="cls-1" d="M72.68,41.28,76,43.53C61,54.56,63.83,73.47,63.83,73.47,68.3,77.94,68.3,89.1,68.3,89.1l4.47-4.46S71,71.74,79.47,66.77c7.81-4.6,14.65-2.23,21.63-2.23,18.7,0,23.94-7.05,23-15.63-.47-4.44-7.26-13.7-24.57-13.4C92.58,35.63,79.46,37.74,72.68,41.28Z" transform="translate(-41 -35)"/><path id="Path_400" data-name="Path 400" class="cls-1" d="M71.37,62.58S69,53.23,76,43.53C61,54.56,63.83,73.47,63.83,73.47,68.3,77.94,68.3,89.1,68.3,89.1l4.47-4.46S71,71.74,79.47,66.77c7.81-4.61,14.65-2.23,21.63-2.23a54.28,54.28,0,0,0,8.05-.56C94.75,64.47,86.26,53.56,71.37,62.58Z" transform="translate(-41 -35)"/><path id="Path_401" data-name="Path 401" class="cls-1" d="M71.65,100.27H68.3A2.24,2.24,0,0,1,66.06,98h0V82.4a2.23,2.23,0,0,1,2.24-2.23h3.35a1.11,1.11,0,0,1,1.11,1.11V99.15a1.1,1.1,0,0,1-1.11,1.12Z" transform="translate(-41 -35)"/><path id="Path_402" data-name="Path 402" class="cls-1" d="M108.49,113.11v-3.35c15.12,0,18.43-8.46,18.43-11.73h3.35C130.27,102.23,126.36,113.11,108.49,113.11Z" transform="translate(-41 -35)"/><path id="Path_403" data-name="Path 403" class="cls-1" d="M108.49,113.67h-2.23a2.23,2.23,0,0,1-2.23-2.24h0a2.23,2.23,0,0,1,2.23-2.23h2.23a2.23,2.23,0,0,1,2.24,2.23h0a2.24,2.24,0,0,1-2.24,2.24Z" transform="translate(-41 -35)"/><path id="Path_404" data-name="Path 404" class="cls-1" d="M130.82,98l3.24-1.61a2.25,2.25,0,0,0,1.23-2V86a2.25,2.25,0,0,0-1.23-2l-3.24-1.61Z" transform="translate(-41 -35)"/><path id="Path_405" data-name="Path 405" class="cls-1" d="M127.47,100.27h3.35A2.24,2.24,0,0,0,133.06,98h0V82.4a2.23,2.23,0,0,0-2.24-2.23h-3.35a1.11,1.11,0,0,0-1.11,1.11V99.15a1.12,1.12,0,0,0,1.11,1.12Z" transform="translate(-41 -35)"/><path id="Path_406" data-name="Path 406" class="cls-1" d="M128.59,160.56H113a2.23,2.23,0,0,0-2.23,2.23h0V165h20.1v-2.24a2.23,2.23,0,0,0-2.24-2.23Z" transform="translate(-41 -35)"/></g></svg>