<svg id="Layer_1" data-name="Layer 1" xmlns="http://www.w3.org/2000/svg" viewBox="0 0 18 23.1"><defs><style>.cls-1{fill:#fff;}.cls-1,.cls-2{stroke:#707070;stroke-width:0.2px;}.cls-2{fill:#cec9ae;}</style></defs><title>التفاصيل</title><g id="Group_29" data-name="Group 29"><path id="Path_68" data-name="Path 68" class="cls-1" d="M108.76,93.73l-5.5-5.49H91.1V111h17.66Z" transform="translate(-91 -88)"/><path id="Path_69" data-name="Path 69" class="cls-2" d="M95,97.26h9.81a.38.38,0,0,0,.41-.37.39.39,0,0,0-.37-.41H95a.4.4,0,0,0-.41.37.39.39,0,0,0,.38.41Z" transform="translate(-91 -88)"/><path id="Path_70" data-name="Path 70" class="cls-2" d="M95,94.13H99a.4.4,0,0,0,0-.79H95a.4.4,0,0,0,0,.79Z" transform="translate(-91 -88)"/><path id="Path_71" data-name="Path 71" class="cls-2" d="M104.83,99.62H95a.39.39,0,0,0-.39.39.4.4,0,0,0,.39.4h9.81a.4.4,0,0,0,.4-.4A.39.39,0,0,0,104.83,99.62Z" transform="translate(-91 -88)"/><path id="Path_72" data-name="Path 72" class="cls-2" d="M104.83,102.76H95a.39.39,0,1,0,0,.78h9.81a.39.39,0,1,0,0-.78Z" transform="translate(-91 -88)"/><path id="Path_73" data-name="Path 73" class="cls-2" d="M104.83,105.9H95a.39.39,0,1,0,0,.78h9.84a.39.39,0,1,0,0-.78Z" transform="translate(-91 -88)"/><path id="Path_74" data-name="Path 74" class="cls-2" d="M103.26,88.24v5.49h5.49Z" transform="translate(-91 -88)"/></g></svg>