<svg id="Layer_1" data-name="Layer 1" xmlns="http://www.w3.org/2000/svg" xmlns:xlink="http://www.w3.org/1999/xlink" viewBox="0 0 72.76 81.28"><defs><style>.cls-1{fill:none;}.cls-2{fill:#d8d8d8;}.cls-3{fill:url(#linear-gradient);}.cls-4{fill:url(#linear-gradient-2);}.cls-5{clip-path:url(#clip-path);}.cls-6{clip-path:url(#clip-path-2);}.cls-7{fill:#fff;}</style><linearGradient id="linear-gradient" x1="5" y1="196.44" x2="5" y2="195.68" gradientTransform="matrix(72.76, 0, 0, -79.18, -277.76, 15620.9)" gradientUnits="userSpaceOnUse"><stop offset="0" stop-color="#a74cf2"/><stop offset="1" stop-color="#7565fb"/></linearGradient><linearGradient id="linear-gradient-2" x1="5" y1="196.66" x2="5" y2="195.66" gradientTransform="matrix(72.76, 0, 0, -79.18, -277.76, 15620.9)" gradientUnits="userSpaceOnUse"><stop offset="0" stop-color="#23c0e9"/><stop offset="1" stop-color="#ab7cc5"/></linearGradient><clipPath id="clip-path" transform="translate(-49.92 -48.38)"><path class="cls-1" d="M78.49,125.47l-20.75-12A15.62,15.62,0,0,1,49.92,100V76a15.62,15.62,0,0,1,7.82-13.54l20.75-12a15.64,15.64,0,0,1,15.63,0l20.75,12A15.62,15.62,0,0,1,122.69,76v24a15.62,15.62,0,0,1-7.82,13.53l-20.75,12a15.59,15.59,0,0,1-15.63,0Z"/></clipPath><clipPath id="clip-path-2" transform="translate(-49.92 -48.38)"><path class="cls-1" d="M113.77,129.66H58.84v-1.17c0-17.62,6.27-20.94,6.54-21.07l13.42-5.6L79.43,98a19.38,19.38,0,0,1-4.75-6.07,26.87,26.87,0,0,1-2.62-10.06,23.39,23.39,0,0,1,2.06-10.65,12.41,12.41,0,0,1,9.21-7,24,24,0,0,1,4.55-.46,13.16,13.16,0,0,1,8.63,2.73,9.5,9.5,0,0,1,2.74,3.68c.87,1,5.06,6.78,1,15.55a15.79,15.79,0,0,1-6.11,12.24l.73,4.33,12.25,5.11c.27.14,6.62,3.5,6.62,21.11v1.18Zm-6.72-19.39a37.49,37.49,0,0,0-4.29,17h8.68C111.26,116.47,108.61,112,107.05,110.27ZM79.6,104l-12,5a39.62,39.62,0,0,1,4.62,18.27h28.25A39.49,39.49,0,0,1,105.06,109L93.68,104.3h0l-.61.48h0c-.2.15-.44.31-.71.49l0,0a11.16,11.16,0,0,1-4.94,1.87h-.12l-.42,0a7.7,7.7,0,0,1-1.17-.1H85.5l-.45-.1,0,0-.09,0h-.33l-.13-.13h0c-.26-.08-.5-.17-.75-.26l-.07,0-.67-.3-.06,0A16,16,0,0,1,79.61,104Zm-14,6.23a13.79,13.79,0,0,0-2.66,5,41,41,0,0,0-1.74,12.1h8.7A38.29,38.29,0,0,0,65.57,110.25Zm16-10.73h0l-.45,2.68a12.23,12.23,0,0,0,4.16,2.41l.55.14.2,0H86a3.91,3.91,0,0,0,.76.07,4.88,4.88,0,0,0,.93-.09l.18,0,.1,0a4.5,4.5,0,0,0,.63-.17l.2-.07.12,0c.18-.07.37-.14.56-.23l.27-.14,0,0h0l.48-.26.29-.17.09-.06.36-.22.17-.12.1-.06.38-.28.22-.16.31-.25,0,0a.45.45,0,0,0,.1-.09l.08-.07,0,0-.46-2.8a18.37,18.37,0,0,1-5.57,2.16l-.27,0-.27-.08a19.43,19.43,0,0,1-2.3-.88h0a17.47,17.47,0,0,1-2-1.09h0A.05.05,0,0,1,81.53,99.52ZM79,77.17c-.49.16-3,1.3-4.24,7.35a18.42,18.42,0,0,0,6.4,11.85l.25.2c.39.3.79.57,1.2.84l.34.2.22.12c.31.18.64.37,1,.54l.55.26c.55.25,1.11.47,1.69.67a17.44,17.44,0,0,0,5.76-2.6l.06,0C94.83,94.67,98,91.06,98,84.64c-.07-1.83-.49-6.31-3-8.38A28.61,28.61,0,0,1,85.26,78a23.3,23.3,0,0,1-6.32-.84Zm16.3-3.58h0l.52.34a9.77,9.77,0,0,1,3.83,5.9,10.68,10.68,0,0,0-2.22-8.27l-.18-.2-.08-.26c-.07-.2-1.7-5-9.24-5a22.86,22.86,0,0,0-4.13.42c-6.61,1.25-8.64,7-9.18,11.65,1.89-3.08,4.07-3.35,4.31-3.37h.22l.21.06a21,21,0,0,0,6,.83,25.78,25.78,0,0,0,9.42-1.81l.56-.26Z"/></clipPath></defs><title>المستخدم</title><g id="user-icon"><g id="Mask"><path id="Mask-2" class="cls-2" d="M78.49,50.48a15.64,15.64,0,0,1,15.63,0l20.75,12A15.62,15.62,0,0,1,122.69,76v24a15.62,15.62,0,0,1-7.82,13.53l-20.75,12a15.59,15.59,0,0,1-15.63,0l-20.75-12A15.64,15.64,0,0,1,49.92,100V76a15.64,15.64,0,0,1,7.82-13.54Z" transform="translate(-49.92 -48.38)"/><path id="Mask-3" class="cls-3" d="M78.49,50.48a15.64,15.64,0,0,1,15.63,0l20.75,12A15.62,15.62,0,0,1,122.69,76v24a15.62,15.62,0,0,1-7.82,13.53l-20.75,12a15.59,15.59,0,0,1-15.63,0l-20.75-12A15.64,15.64,0,0,1,49.92,100V76a15.64,15.64,0,0,1,7.82-13.54Z" transform="translate(-49.92 -48.38)"/><path id="Mask-4" class="cls-4" d="M78.49,50.48a15.64,15.64,0,0,1,15.63,0l20.75,12A15.62,15.62,0,0,1,122.69,76v24a15.62,15.62,0,0,1-7.82,13.53l-20.75,12a15.59,15.59,0,0,1-15.63,0l-20.75-12A15.64,15.64,0,0,1,49.92,100V76a15.64,15.64,0,0,1,7.82-13.54Z" transform="translate(-49.92 -48.38)"/></g><g class="cls-5"><g id="user-icon-2"><g id="Group_3" data-name="Group 3"><path id="Clip_2-2" data-name="Clip 2-2" class="cls-1" d="M113.77,129.66H58.84v-1.17c0-17.62,6.27-20.94,6.54-21.07l13.42-5.6L79.43,98a19.38,19.38,0,0,1-4.75-6.07,26.87,26.87,0,0,1-2.62-10.06,23.39,23.39,0,0,1,2.06-10.65,12.41,12.41,0,0,1,9.21-7,24,24,0,0,1,4.55-.46,13.16,13.16,0,0,1,8.63,2.73,9.5,9.5,0,0,1,2.74,3.68c.87,1,5.06,6.78,1,15.55a15.79,15.79,0,0,1-6.11,12.24l.73,4.33,12.25,5.11c.27.14,6.62,3.5,6.62,21.11v1.18Zm-6.72-19.39a37.49,37.49,0,0,0-4.29,17h8.68C111.26,116.47,108.61,112,107.05,110.27ZM79.6,104l-12,5a39.62,39.62,0,0,1,4.62,18.27h28.25A39.49,39.49,0,0,1,105.06,109L93.68,104.3h0l-.61.48h0c-.2.15-.44.31-.71.49l0,0a11.16,11.16,0,0,1-4.94,1.87h-.12l-.42,0a7.7,7.7,0,0,1-1.17-.1H85.5l-.45-.1,0,0-.09,0h-.33l-.13-.13h0c-.26-.08-.5-.17-.75-.26l-.07,0-.67-.3-.06,0A16,16,0,0,1,79.61,104Zm-14,6.23a13.79,13.79,0,0,0-2.66,5,41,41,0,0,0-1.74,12.1h8.7A38.29,38.29,0,0,0,65.57,110.25Zm16-10.73h0l-.45,2.68a12.23,12.23,0,0,0,4.16,2.41l.55.14.2,0H86a3.91,3.91,0,0,0,.76.07,4.88,4.88,0,0,0,.93-.09l.18,0,.1,0a4.5,4.5,0,0,0,.63-.17l.2-.07.12,0c.18-.07.37-.14.56-.23l.27-.14,0,0h0l.48-.26.29-.17.09-.06.36-.22.17-.12.1-.06.38-.28.22-.16.31-.25,0,0a.45.45,0,0,0,.1-.09l.08-.07,0,0-.46-2.8a18.37,18.37,0,0,1-5.57,2.16l-.27,0-.27-.08a19.43,19.43,0,0,1-2.3-.88h0a17.47,17.47,0,0,1-2-1.09h0A.05.05,0,0,1,81.53,99.52ZM79,77.17c-.49.16-3,1.3-4.24,7.35a18.42,18.42,0,0,0,6.4,11.85l.25.2c.39.3.79.57,1.2.84l.34.2.22.12c.31.18.64.37,1,.54l.55.26c.55.25,1.11.47,1.69.67a17.44,17.44,0,0,0,5.76-2.6l.06,0C94.83,94.67,98,91.06,98,84.64c-.07-1.83-.49-6.31-3-8.38A28.61,28.61,0,0,1,85.26,78a23.3,23.3,0,0,1-6.32-.84Zm16.3-3.58h0l.52.34a9.77,9.77,0,0,1,3.83,5.9,10.68,10.68,0,0,0-2.22-8.27l-.18-.2-.08-.26c-.07-.2-1.7-5-9.24-5a22.86,22.86,0,0,0-4.13.42c-6.61,1.25-8.64,7-9.18,11.65,1.89-3.08,4.07-3.35,4.31-3.37h.22l.21.06a21,21,0,0,0,6,.83,25.78,25.78,0,0,0,9.42-1.81l.56-.26Z" transform="translate(-49.92 -48.38)"/><g class="cls-6"><g id="Group_3-2" data-name="Group 3-2"><path id="Fill_1" data-name="Fill 1" class="cls-7" d="M58.84,129.66h56.5V62.17H58.84Z" transform="translate(-49.92 -48.38)"/></g></g></g></g></g></g></svg>