<svg id="Layer_1" data-name="Layer 1" xmlns="http://www.w3.org/2000/svg" viewBox="0 0 116.12 129.53"><defs><style>.cls-1{fill:#707487;}.cls-2{fill:#e6af78;}.cls-3{fill:#b4e1fa;}.cls-4{fill:#d29b6e;}.cls-5{fill:#f0c087;}.cls-6{fill:#a0d2f0;}.cls-7{fill:#5b5d6e;}.cls-8{fill:#515262;}.cls-9{fill:#785550;}.cls-10{fill:#694b4b;}.cls-11{fill:#5a4146;}.cls-12{fill:#464655;}</style></defs><title>الخدمات</title><g id="Group_145" data-name="Group 145"><path id="Path_386" data-name="Path 386" class="cls-1" d="M68.8,97.53l-3.23-1.61a2.24,2.24,0,0,1-1.24-2V85.51a2.24,2.24,0,0,1,1.24-2L68.8,81.9Z" transform="translate(-42 -35)"/><path id="Path_387" data-name="Path 387" class="cls-2" d="M120.16,126.57V110.93H80v15.63l20.1,17.87Z" transform="translate(-42 -35)"/><path id="Path_388" data-name="Path 388" class="cls-3" d="M151.24,133.88l-27.63-6.5a4.35,4.35,0,0,1-1.16-.47L100.06,140,78.55,126.28a4.44,4.44,0,0,1-2,1.1l-27.63,6.5a8.93,8.93,0,0,0-6.89,8.7v17.49a4.47,4.47,0,0,0,4.47,4.46H153.66a4.46,4.46,0,0,0,4.46-4.46h0V142.58A8.93,8.93,0,0,0,151.24,133.88Z" transform="translate(-42 -35)"/><path id="Path_389" data-name="Path 389" class="cls-4" d="M80,110.93v16.5c25.32,9.12,40.2-13.71,40.2-13.71v-2.79Z" transform="translate(-42 -35)"/><path id="Path_390" data-name="Path 390" class="cls-5" d="M71,59.57l2,42.81a13.39,13.39,0,0,0,5.34,10.11l9.24,6.93a13.39,13.39,0,0,0,8,2.68h8.94a13.4,13.4,0,0,0,8-2.68l9.23-6.93a13.39,13.39,0,0,0,5.34-10.11l2-42.81Z" transform="translate(-42 -35)"/><path id="Path_391" data-name="Path 391" class="cls-2" d="M93.36,68.5c8.93,0,22.33-2.23,25.51-8.93H71l2,42.81a13.39,13.39,0,0,0,5.34,10.11l9.24,6.93a13.4,13.4,0,0,0,8,2.68h4.46c-4.46,0-13.4-8.93-13.4-20.1V75.2C86.66,73,88.9,68.5,93.36,68.5Z" transform="translate(-42 -35)"/><g id="Group_106" data-name="Group 106"><path id="Path_392" data-name="Path 392" class="cls-6" d="M58.39,150,43.92,137A9,9,0,0,0,42,142.57v17.49a4.47,4.47,0,0,0,4.47,4.47H62.1v-6.19A11.17,11.17,0,0,0,58.39,150Z" transform="translate(-42 -35)"/><path id="Path_393" data-name="Path 393" class="cls-6" d="M141.73,150l14.47-13a9,9,0,0,1,1.92,5.54v17.49a4.47,4.47,0,0,1-4.46,4.47H138v-6.19A11.17,11.17,0,0,1,141.73,150Z" transform="translate(-42 -35)"/></g><path id="Path_394" data-name="Path 394" class="cls-7" d="M105.65,164.53H94.48l1.4-20.1h8.37Z" transform="translate(-42 -35)"/><path id="Path_395" data-name="Path 395" class="cls-8" d="M105.65,140H94.48v4.2a2.5,2.5,0,0,0,2.5,2.5h6.17a2.5,2.5,0,0,0,2.5-2.5Z" transform="translate(-42 -35)"/><g id="Group_107" data-name="Group 107"><path id="Path_396" data-name="Path 396" class="cls-6" d="M79.65,121.59,100.06,140a77.54,77.54,0,0,0-12.77,8.7,2.86,2.86,0,0,1-4-.36,2.68,2.68,0,0,1-.41-.64l-9.59-21.1,3-4.55a2.23,2.23,0,0,1,3.09-.62Z" transform="translate(-42 -35)"/><path id="Path_397" data-name="Path 397" class="cls-6" d="M120.47,121.59,100.06,140a77.12,77.12,0,0,1,12.77,8.7,2.87,2.87,0,0,0,4-.36,3.27,3.27,0,0,0,.4-.64l9.59-21.1-3-4.55a2.25,2.25,0,0,0-3.1-.62Z" transform="translate(-42 -35)"/></g><path id="Path_398" data-name="Path 398" class="cls-9" d="M113.6,44.78l2.09,14.79c9.56,1.91,10.94,16.91,11.13,21.19a4.44,4.44,0,0,0,.71,2.18l3.65,5.66s-1.25-9.35,4.46-15.63C135.64,73,137.6,35.84,113.6,44.78Z" transform="translate(-42 -35)"/><path id="Path_399" data-name="Path 399" class="cls-10" d="M73.18,40.78,76.48,43C61.54,54.06,64.33,73,64.33,73,68.8,77.44,68.8,88.6,68.8,88.6l4.47-4.46S71.54,71.24,80,66.27C87.78,61.67,94.62,64,101.6,64c18.7,0,23.94-7.05,23-15.63-.47-4.44-7.26-13.7-24.57-13.4C93.08,35.13,80,37.24,73.18,40.78Z" transform="translate(-42 -35)"/><path id="Path_400" data-name="Path 400" class="cls-11" d="M71.87,62.08s-2.37-9.35,4.61-19C61.54,54.06,64.33,73,64.33,73,68.8,77.44,68.8,88.6,68.8,88.6l4.47-4.46S71.54,71.24,80,66.27C87.78,61.66,94.62,64,101.6,64a54.28,54.28,0,0,0,8.05-.56C95.25,64,86.76,53.06,71.87,62.08Z" transform="translate(-42 -35)"/><path id="Path_401" data-name="Path 401" class="cls-7" d="M72.15,99.77H68.8a2.24,2.24,0,0,1-2.24-2.24h0V81.9a2.23,2.23,0,0,1,2.24-2.23h3.35a1.11,1.11,0,0,1,1.11,1.11V98.65a1.1,1.1,0,0,1-1.11,1.12Z" transform="translate(-42 -35)"/><path id="Path_402" data-name="Path 402" class="cls-12" d="M109,112.61v-3.35c15.12,0,18.43-8.46,18.43-11.73h3.35C130.77,101.73,126.86,112.61,109,112.61Z" transform="translate(-42 -35)"/><path id="Path_403" data-name="Path 403" class="cls-7" d="M109,113.17h-2.23a2.23,2.23,0,0,1-2.23-2.24h0a2.23,2.23,0,0,1,2.23-2.23H109a2.23,2.23,0,0,1,2.24,2.23h0a2.24,2.24,0,0,1-2.24,2.24Z" transform="translate(-42 -35)"/><path id="Path_404" data-name="Path 404" class="cls-1" d="M131.32,97.53l3.24-1.61a2.25,2.25,0,0,0,1.23-2V85.51a2.25,2.25,0,0,0-1.23-2l-3.24-1.61Z" transform="translate(-42 -35)"/><path id="Path_405" data-name="Path 405" class="cls-7" d="M128,99.77h3.35a2.24,2.24,0,0,0,2.24-2.24h0V81.9a2.23,2.23,0,0,0-2.24-2.23H128a1.11,1.11,0,0,0-1.11,1.11V98.65A1.12,1.12,0,0,0,128,99.77Z" transform="translate(-42 -35)"/><path id="Path_406" data-name="Path 406" class="cls-6" d="M129.09,160.06H113.46a2.23,2.23,0,0,0-2.23,2.23h0v2.24h20.1v-2.24a2.23,2.23,0,0,0-2.24-2.23Z" transform="translate(-42 -35)"/></g></svg>