<svg id="Layer_1" data-name="Layer 1" xmlns="http://www.w3.org/2000/svg" viewBox="0 0 87 87"><defs><style>.cls-1{fill:#e3f0f0;}.cls-2{fill:#46738c;}.cls-3{fill:#ff8c46;}.cls-4{fill:#ffb69e;}.cls-5{fill:#343e6b;}.cls-6{fill:#414b82;}.cls-7{fill:#252d5c;}.cls-8{fill:#1b224a;}.cls-9{fill:#fff;}.cls-10{fill:#ff3c3c;}.cls-11{fill:#80391b;}.cls-12{fill:#55c7a6;}.cls-13{fill:#78beff;}.cls-14{fill:#ba6746;}</style></defs><title>تربية وتعليم</title><circle id="Ellipse_7" data-name="Ellipse 7" class="cls-1" cx="43.5" cy="43.5" r="43.5"/><g id="Group_45" data-name="Group 45"><path id="Path_98" data-name="Path 98" class="cls-2" d="M98.23,92.49v-16A1.72,1.72,0,0,1,100,74.74h22.83a1.72,1.72,0,0,1,1.73,1.72h0v16a1.73,1.73,0,0,1-1.73,1.73H100A1.72,1.72,0,0,1,98.23,92.49Z" transform="translate(-56 -56)"/><path id="Path_99" data-name="Path 99" class="cls-3" d="M99.56,88.43A.86.86,0,0,1,99,86.89l7-5.55a.86.86,0,1,1,1.07,1.35h0l-7,5.55A.89.89,0,0,1,99.56,88.43Z" transform="translate(-56 -56)"/><circle id="Ellipse_8" data-name="Ellipse 8" class="cls-4" cx="29.78" cy="19.74" r="3.74"/><path id="Path_100" data-name="Path 100" class="cls-5" d="M88.38,117.69a2.17,2.17,0,0,1-2.18-2.17V98.11a2.18,2.18,0,1,1,4.35,0h0v17.41a2.17,2.17,0,0,1-2.17,2.17Z" transform="translate(-56 -56)"/><path id="Path_101" data-name="Path 101" class="cls-6" d="M83.12,117.69a2.18,2.18,0,0,1-2.18-2.17V98.11a2.18,2.18,0,0,1,4.36,0h0v17.41A2.18,2.18,0,0,1,83.12,117.69Z" transform="translate(-56 -56)"/><path id="Path_102" data-name="Path 102" class="cls-7" d="M101.07,86.62A1.8,1.8,0,0,0,98.59,86L94.93,88.3V84.93a4.3,4.3,0,0,0-4.29-4.25H80.87A4.33,4.33,0,0,0,76.51,85V98.29a1.82,1.82,0,1,0,3.63,0h0V85a.73.73,0,0,1,.73-.66h.07v13.8h9.61V84.29h.09a.69.69,0,0,1,.7.66v6.6a1.8,1.8,0,0,0,1.82,1.79,1.77,1.77,0,0,0,.94-.27l6.4-4A1.8,1.8,0,0,0,101.07,86.62Z" transform="translate(-56 -56)"/><path id="Path_103" data-name="Path 103" class="cls-8" d="M101.07,86.62A1.8,1.8,0,0,0,98.59,86L94.93,88.3V84.93a4.3,4.3,0,0,0-4.29-4.25H85.75V98.11h4.8V84.29h.09a.69.69,0,0,1,.7.66v6.6a1.81,1.81,0,0,0,1.82,1.79,1.77,1.77,0,0,0,.94-.27l6.4-4A1.8,1.8,0,0,0,101.07,86.62Z" transform="translate(-56 -56)"/><path id="Path_104" data-name="Path 104" class="cls-4" d="M101.07,86.62A1.81,1.81,0,0,0,98.58,86l1.9,3.07a1.79,1.79,0,0,0,.59-2.48Z" transform="translate(-56 -56)"/><g id="Group_39" data-name="Group 39"><rect id="Rectangle_25" data-name="Rectangle 25" class="cls-9" x="98.83" y="85.96" width="0.77" height="3.61" transform="translate(-87.24 8.81) rotate(-31.51)"/><path id="Path_105" data-name="Path 105" class="cls-9" d="M76.51,97.36v.93a1.82,1.82,0,1,0,3.63,0v-.93Z" transform="translate(-56 -56)"/></g><path id="Path_106" data-name="Path 106" class="cls-4" d="M76.51,98.25v0a1.82,1.82,0,1,0,3.63,0h0v0Z" transform="translate(-56 -56)"/><path id="Path_107" data-name="Path 107" class="cls-9" d="M83,80.68l2.77,7.26,2.77-7.26Z" transform="translate(-56 -56)"/><path id="Path_108" data-name="Path 108" class="cls-10" d="M87,83.15,86.34,82l.53-1a.27.27,0,0,0-.11-.36.28.28,0,0,0-.13,0H84.86a.27.27,0,0,0-.27.26.2.2,0,0,0,0,.13l.53,1-.62,1.11a.76.76,0,0,0-.07.51l.37,1.92.9,2.36.9-2.36L87,83.66A.76.76,0,0,0,87,83.15Z" transform="translate(-56 -56)"/><rect id="Rectangle_26" data-name="Rectangle 26" class="cls-7" x="31.09" y="30.26" width="2.4" height="0.74"/><g id="Group_40" data-name="Group 40"><circle id="Ellipse_9" data-name="Ellipse 9" class="cls-11" cx="62.1" cy="51.08" r="3.65"/><path id="Path_109" data-name="Path 109" class="cls-11" d="M122.81,111.9h-9.46a4.2,4.2,0,0,0-4.19,4.15v4.08h3.53v-4.06a.66.66,0,0,1,.66-.65h0v4.71h9.33v-4.71h.09a.67.67,0,0,1,.67.65v4.06H127v-4.08A4.19,4.19,0,0,0,122.81,111.9Z" transform="translate(-56 -56)"/></g><path id="Path_110" data-name="Path 110" class="cls-12" d="M122.81,111.9h-2.89a2.85,2.85,0,0,1-3.63,0h-2.94a4.19,4.19,0,0,0-4.19,4.15v2.56h3.52v-2.55a.67.67,0,0,1,.67-.64h0v4.71h9.34v-4.71h.09a.68.68,0,0,1,.67.64v2.55H127v-2.56A4.19,4.19,0,0,0,122.81,111.9Z" transform="translate(-56 -56)"/><g id="Group_41" data-name="Group 41"><circle id="Ellipse_10" data-name="Ellipse 10" class="cls-4" cx="43.52" cy="51.08" r="3.65"/><path id="Path_111" data-name="Path 111" class="cls-4" d="M104.23,111.9H94.77a4.2,4.2,0,0,0-4.19,4.15v4.08h3.53v-4.06a.66.66,0,0,1,.66-.65h0v4.71h9.33v-4.71h.09a.67.67,0,0,1,.67.65v4.06h3.52v-4.08A4.19,4.19,0,0,0,104.23,111.9Z" transform="translate(-56 -56)"/></g><path id="Path_112" data-name="Path 112" class="cls-7" d="M104.23,111.9h-3a2.85,2.85,0,0,1-3.63,0h-2.8a4.19,4.19,0,0,0-4.19,4.15v2.56H94.1v-2.55a.68.68,0,0,1,.67-.64h0v4.71h9.34v-4.71h.09a.66.66,0,0,1,.66.64v2.55h3.53v-2.56A4.21,4.21,0,0,0,104.23,111.9Z" transform="translate(-56 -56)"/><g id="Group_42" data-name="Group 42"><circle id="Ellipse_11" data-name="Ellipse 11" class="cls-4" cx="24.93" cy="51.02" r="3.65"/><path id="Path_113" data-name="Path 113" class="cls-4" d="M85.65,111.84H76.19A4.2,4.2,0,0,0,72,116v4.08h3.52V116a.68.68,0,0,1,.67-.65h0v4.72h9.34v-4.72h.09a.66.66,0,0,1,.66.65v4.06h3.53V116A4.21,4.21,0,0,0,85.65,111.84Z" transform="translate(-56 -56)"/></g><path id="Path_114" data-name="Path 114" class="cls-13" d="M85.65,111.84h-3a2.83,2.83,0,0,1-3.63,0h-2.8A4.2,4.2,0,0,0,72,116v2.57h3.52V116a.67.67,0,0,1,.67-.64h0v4.71h9.34v-4.71h.09a.65.65,0,0,1,.66.64v2.55h3.53V116A4.21,4.21,0,0,0,85.65,111.84Z" transform="translate(-56 -56)"/><g id="Group_43" data-name="Group 43"><circle id="Ellipse_12" data-name="Ellipse 12" class="cls-4" cx="53.84" cy="57.63" r="3.65"/><path id="Path_115" data-name="Path 115" class="cls-4" d="M114.56,118.44H105.1a4.21,4.21,0,0,0-4.19,4.15v4.09h3.52v-4.07a.66.66,0,0,1,.67-.64h0v4.71h9.33V122h.1a.66.66,0,0,1,.66.64v4.07h3.53v-4.09A4.21,4.21,0,0,0,114.56,118.44Z" transform="translate(-56 -56)"/></g><path id="Path_116" data-name="Path 116" class="cls-13" d="M114.55,118.44h-2.88a2.83,2.83,0,0,1-3.63,0H105.1a4.2,4.2,0,0,0-4.19,4.15v2.57h3.52v-2.55a.66.66,0,0,1,.67-.64h0v4.71h9.33V122h.1a.66.66,0,0,1,.66.64v2.55h3.53v-2.57A4.21,4.21,0,0,0,114.55,118.44Z" transform="translate(-56 -56)"/><g id="Group_44" data-name="Group 44"><circle id="Ellipse_13" data-name="Ellipse 13" class="cls-14" cx="35.26" cy="57.63" r="3.65"/><path id="Path_117" data-name="Path 117" class="cls-14" d="M96,118.44H86.52a4.21,4.21,0,0,0-4.19,4.15v4.09h3.52v-4.07a.66.66,0,0,1,.67-.64h0v4.71h9.34V122H96a.66.66,0,0,1,.66.64v4.07h3.53v-4.09A4.21,4.21,0,0,0,96,118.44Z" transform="translate(-56 -56)"/></g><path id="Path_118" data-name="Path 118" class="cls-10" d="M96,118.44h-3a2.81,2.81,0,0,1-3.62,0h-2.8a4.2,4.2,0,0,0-4.19,4.15v2.57h3.52v-2.55a.66.66,0,0,1,.67-.64h0v4.71h9.33V122H96a.66.66,0,0,1,.66.64v2.55h3.53v-2.57A4.21,4.21,0,0,0,96,118.44Z" transform="translate(-56 -56)"/></g></svg>