<svg id="Layer_1" data-name="Layer 1" xmlns="http://www.w3.org/2000/svg" viewBox="0 0 87 87"><defs><style>.cls-1{fill:#f5e3f2;}.cls-2{fill:#6cbdbd;}.cls-3{fill:#b3b3b3;}.cls-4{fill:#008fcf;}.cls-5{fill:#e6e6e6;}.cls-6{fill:#00c9dd;}.cls-7{fill:#ffcd34;}.cls-8{fill:#226c8a;}.cls-9{fill:#603813;}.cls-10{fill:#81d0d3;}</style></defs><title>تشييد وبناء</title><circle id="Ellipse_15" data-name="Ellipse 15" class="cls-1" cx="43.5" cy="43.5" r="43.5"/><g id="Group_47" data-name="Group 47"><path id="Path_150" data-name="Path 150" class="cls-2" d="M123,128a3,3,0,1,1,3-3A3,3,0,0,1,123,128Zm0-4a1,1,0,1,0,1,1A1,1,0,0,0,123,124Z" transform="translate(-56 -56)"/><path id="Path_151" data-name="Path 151" class="cls-2" d="M127,128a3,3,0,1,1,3-3A3,3,0,0,1,127,128Zm0-4a1,1,0,1,0,1,1A1,1,0,0,0,127,124Z" transform="translate(-56 -56)"/><path id="Path_152" data-name="Path 152" class="cls-2" d="M125,124a3,3,0,1,1,3-3A3,3,0,0,1,125,124Zm0-4a1,1,0,1,0,1,1A1,1,0,0,0,125,120Z" transform="translate(-56 -56)"/><path id="Path_153" data-name="Path 153" class="cls-3" d="M71,128l5-5,5,5" transform="translate(-56 -56)"/><rect id="Rectangle_27" data-name="Rectangle 27" class="cls-4" x="27" y="26" width="2" height="14"/><rect id="Rectangle_28" data-name="Rectangle 28" class="cls-4" x="51" y="31" width="2" height="17"/><rect id="Rectangle_29" data-name="Rectangle 29" class="cls-4" x="28" y="30" width="14" height="2"/><rect id="Rectangle_30" data-name="Rectangle 30" class="cls-4" x="28" y="35" width="23" height="2"/><rect id="Rectangle_31" data-name="Rectangle 31" class="cls-4" x="43" y="33" width="2" height="15"/><rect id="Rectangle_32" data-name="Rectangle 32" class="cls-4" x="35" y="34" width="2" height="6"/><path id="Path_154" data-name="Path 154" class="cls-5" d="M100.41,103l-4-4H93V94.67H83V129h26V103Z" transform="translate(-56 -56)"/><rect id="Rectangle_33" data-name="Rectangle 33" class="cls-6" x="31" y="47" width="2" height="2"/><rect id="Rectangle_34" data-name="Rectangle 34" class="cls-6" x="35" y="47" width="2" height="2"/><rect id="Rectangle_35" data-name="Rectangle 35" class="cls-6" x="39" y="47" width="2" height="2"/><rect id="Rectangle_36" data-name="Rectangle 36" class="cls-6" x="31" y="51" width="2" height="2"/><rect id="Rectangle_37" data-name="Rectangle 37" class="cls-6" x="35" y="51" width="2" height="2"/><rect id="Rectangle_38" data-name="Rectangle 38" class="cls-6" x="39" y="51" width="2" height="2"/><rect id="Rectangle_39" data-name="Rectangle 39" class="cls-6" x="43" y="51" width="2" height="2"/><rect id="Rectangle_40" data-name="Rectangle 40" class="cls-6" x="47" y="51" width="2" height="2"/><rect id="Rectangle_41" data-name="Rectangle 41" class="cls-6" x="31" y="55" width="2" height="2"/><rect id="Rectangle_42" data-name="Rectangle 42" class="cls-6" x="35" y="55" width="2" height="2"/><rect id="Rectangle_43" data-name="Rectangle 43" class="cls-6" x="39" y="55" width="2" height="2"/><rect id="Rectangle_44" data-name="Rectangle 44" class="cls-6" x="43" y="55" width="2" height="2"/><rect id="Rectangle_45" data-name="Rectangle 45" class="cls-6" x="47" y="55" width="2" height="2"/><rect id="Rectangle_46" data-name="Rectangle 46" class="cls-6" x="31" y="59" width="2" height="2"/><rect id="Rectangle_47" data-name="Rectangle 47" class="cls-6" x="35" y="59" width="2" height="2"/><rect id="Rectangle_48" data-name="Rectangle 48" class="cls-6" x="39" y="59" width="2" height="2"/><rect id="Rectangle_49" data-name="Rectangle 49" class="cls-6" x="43" y="59" width="2" height="2"/><rect id="Rectangle_50" data-name="Rectangle 50" class="cls-6" x="47" y="59" width="2" height="2"/><rect id="Rectangle_51" data-name="Rectangle 51" class="cls-6" x="31" y="63" width="2" height="2"/><rect id="Rectangle_52" data-name="Rectangle 52" class="cls-6" x="35" y="63" width="2" height="2"/><rect id="Rectangle_53" data-name="Rectangle 53" class="cls-6" x="39" y="63" width="2" height="2"/><rect id="Rectangle_54" data-name="Rectangle 54" class="cls-6" x="43" y="63" width="2" height="2"/><rect id="Rectangle_55" data-name="Rectangle 55" class="cls-6" x="47" y="63" width="2" height="2"/><rect id="Rectangle_56" data-name="Rectangle 56" class="cls-6" x="31" y="67" width="2" height="2"/><rect id="Rectangle_57" data-name="Rectangle 57" class="cls-6" x="35" y="67" width="2" height="2"/><rect id="Rectangle_58" data-name="Rectangle 58" class="cls-6" x="39" y="67" width="2" height="2"/><rect id="Rectangle_59" data-name="Rectangle 59" class="cls-6" x="43" y="67" width="2" height="2"/><rect id="Rectangle_60" data-name="Rectangle 60" class="cls-6" x="47" y="67" width="2" height="2"/><path id="Path_155" data-name="Path 155" class="cls-7" d="M71,105h8v4l-2,2H73l-2-2Z" transform="translate(-56 -56)"/><path id="Path_156" data-name="Path 156" class="cls-3" d="M71,105l3-4h2l3,4" transform="translate(-56 -56)"/><path id="Path_157" data-name="Path 157" class="cls-7" d="M118,78h-4a1,1,0,0,0-1,1v49a1,1,0,0,0,1,1h4a1,1,0,0,0,1-1V79A1,1,0,0,0,118,78Zm-2.8,43,1.8-2.7v5.4Zm1.6-30L115,93.7V88.3Zm-1.6-6,1.8-2.7v5.4Zm-.2,15.3,1.8,2.7-1.8,2.7Zm0,12,1.8,2.7-1.8,2.7Zm.2-3.3,1.8-2.7v5.4Zm0-12,1.8-2.7v5.4Zm.93-17L115,81.7V80ZM115,124.3l1.8,2.7H115Z" transform="translate(-56 -56)"/><path id="Path_158" data-name="Path 158" class="cls-7" d="M111,72H71a1,1,0,0,0-1,1v4a1,1,0,0,0,1,1h40a1,1,0,0,0,1-1V73A1,1,0,0,0,111,72ZM85,74.2,87.7,76H82.3Zm-6,1.6L76.3,74h5.4ZM88.3,74h5.4L91,75.8Zm8.7.2L99.7,76H94.3Zm3.3-.2h5.4L103,75.8ZM72,74h.7l3,2H72Zm38,2h-3.7l3-2h.7Z" transform="translate(-56 -56)"/><path id="Path_159" data-name="Path 159" class="cls-7" d="M129,72h-8a1,1,0,0,0-1,1v4a1,1,0,0,0,1,1h8a1,1,0,0,0,1-1V73A1,1,0,0,0,129,72Zm-4.3,2L122,75.8V74Zm.6,2,2.7-1.8V76Z" transform="translate(-56 -56)"/><path id="Path_160" data-name="Path 160" class="cls-4" d="M75,102a3,3,0,0,1-3-3h2a1,1,0,1,0,1-1,1,1,0,0,1-1-1V77h2V96.17A3,3,0,0,1,75,102Z" transform="translate(-56 -56)"/><rect id="Rectangle_61" data-name="Rectangle 61" class="cls-8" x="55" y="14" width="10" height="9"/><rect id="Rectangle_62" data-name="Rectangle 62" class="cls-6" x="55" y="14" width="6" height="6"/><rect id="Rectangle_63" data-name="Rectangle 63" class="cls-9" x="14" y="71" width="60" height="2"/><path id="Path_161" data-name="Path 161" class="cls-10" d="M111,76a7.65,7.65,0,0,0,6-6v6Z" transform="translate(-56 -56)"/></g></svg>