<svg id="Layer_1" data-name="Layer 1" xmlns="http://www.w3.org/2000/svg" viewBox="0 0 87 87"><defs><style>.cls-1{fill:#e3f0f0;}.cls-2{fill:#f6bb00;}.cls-3{fill:#deae7e;}.cls-4{fill:#eda600;}.cls-5{fill:#7e57df;}.cls-6{fill:#a88af2;}.cls-7{fill:#548aff;}.cls-8{fill:#4d6378;}.cls-9{fill:#633dcc;}.cls-10{fill:#522fbd;}.cls-11{fill:#f5c99d;}.cls-12{fill:#b1792c;}.cls-13{fill:#956625;}.cls-14{fill:#5c7387;}.cls-15{fill:#c79369;}</style></defs><title>تكنولوجيا معلومات واتصالات</title><circle id="Ellipse_19" data-name="Ellipse 19" class="cls-1" cx="43.5" cy="43.5" r="43.5"/><g id="Group_58" data-name="Group 58"><path id="Path_224" data-name="Path 224" class="cls-2" d="M110,104.52V127H74V104.52a3.78,3.78,0,0,1,1.88-3.27l6.86-4,1.64-1,1-.58H98.66l1,.58,1.64,1,6.86,4a3.78,3.78,0,0,1,1.88,3.27Z" transform="translate(-56 -56)"/><path id="Path_225" data-name="Path 225" class="cls-3" d="M120.47,121.31l-3.75,3.74a6.62,6.62,0,0,1-4.69,2h-7.68v-5.69Z" transform="translate(-56 -56)"/><path id="Path_226" data-name="Path 226" class="cls-4" d="M74,127H86.33A12.33,12.33,0,0,1,74,114.67Z" transform="translate(-56 -56)"/><rect id="Rectangle_75" data-name="Rectangle 75" class="cls-5" x="51" y="42" width="15" height="23"/><rect id="Rectangle_76" data-name="Rectangle 76" class="cls-6" x="48" y="46" width="3" height="2"/><rect id="Rectangle_77" data-name="Rectangle 77" class="cls-6" x="48" y="51" width="3" height="1"/><rect id="Rectangle_78" data-name="Rectangle 78" class="cls-6" x="48" y="54" width="3" height="1"/><rect id="Rectangle_79" data-name="Rectangle 79" class="cls-6" x="48" y="58" width="3" height="2"/><rect id="Rectangle_80" data-name="Rectangle 80" class="cls-6" x="66" y="46" width="4" height="2"/><rect id="Rectangle_81" data-name="Rectangle 81" class="cls-6" x="66" y="51" width="4" height="1"/><rect id="Rectangle_82" data-name="Rectangle 82" class="cls-6" x="66" y="54" width="4" height="1"/><rect id="Rectangle_83" data-name="Rectangle 83" class="cls-6" x="66" y="58" width="4" height="2"/><rect id="Rectangle_84" data-name="Rectangle 84" class="cls-6" x="54" y="39" width="2" height="3"/><rect id="Rectangle_85" data-name="Rectangle 85" class="cls-6" x="58" y="39" width="2" height="3"/><rect id="Rectangle_86" data-name="Rectangle 86" class="cls-6" x="61" y="39" width="3" height="3"/><path id="Path_227" data-name="Path 227" class="cls-7" d="M87.28,118.46V109h9.48v10.43Z" transform="translate(-56 -56)"/><path id="Path_228" data-name="Path 228" class="cls-8" d="M101.3,97.25l-8.5,12.27a1,1,0,0,1-1.32.24.78.78,0,0,1-.24-.24l-8.5-12.27,1.64-1,7.63,11,7.64-11Z" transform="translate(-56 -56)"/><path id="Path_229" data-name="Path 229" class="cls-9" d="M111,105.19a2.85,2.85,0,0,0,2.85-2.85h4.74v15.18H111Z" transform="translate(-56 -56)"/><rect id="Rectangle_87" data-name="Rectangle 87" class="cls-10" x="58" y="52" width="2" height="6"/><path id="Path_230" data-name="Path 230" class="cls-4" d="M101.5,121.31H99.43l-13-2.3a4.73,4.73,0,0,1-3.92-4.67v-2.5h1.9v2.5a2.84,2.84,0,0,0,2.35,2.8l12.9,2.28h1.81Z" transform="translate(-56 -56)"/><path id="Path_231" data-name="Path 231" class="cls-11" d="M99.6,127h7.68a6.65,6.65,0,0,0,4.7-2l3.66-3.65a1.79,1.79,0,0,0-2.39-2.66l-2.44,1.94a2.8,2.8,0,0,1-1.77.63h-1.85s.43-2.17.72-3.57a1.56,1.56,0,0,0-.84-1.7h0a1.51,1.51,0,0,0-1.56.12l-5.89,4.21Z" transform="translate(-56 -56)"/><path id="Path_232" data-name="Path 232" class="cls-12" d="M96.76,77.69V74.84A2.84,2.84,0,0,0,93.91,72H90.12a6.64,6.64,0,0,0-6.64,6.64h0v1.9l2.18-2.18a2.29,2.29,0,0,1,3.23,0l1.5,1.5a2.28,2.28,0,0,0,3.24,0l1.5-1.5a2.29,2.29,0,0,1,1.62-.67Z" transform="translate(-56 -56)"/><path id="Path_233" data-name="Path 233" class="cls-13" d="M97.71,73.9a2.84,2.84,0,0,1,2.84,2.84h0v3.79l-2.17-2.17a2.29,2.29,0,0,0-1.62-.67V74.84a.94.94,0,0,1,.95-.94Z" transform="translate(-56 -56)"/><path id="Path_234" data-name="Path 234" class="cls-11" d="M100.55,80.53V90a8.54,8.54,0,0,1-17.07,0V80.53l2.18-2.17a2.29,2.29,0,0,1,3.23,0l1.5,1.5a2.3,2.3,0,0,0,3.24,0l1.5-1.5a2.3,2.3,0,0,1,3.24,0Z" transform="translate(-56 -56)"/><rect id="Rectangle_88" data-name="Rectangle 88" class="cls-12" x="30" y="28" width="4" height="1"/><path id="Path_235" data-name="Path 235" class="cls-14" d="M92,112.77a.94.94,0,0,1-1-.94h0V109a1,1,0,0,1,1.9,0v2.85a1,1,0,0,1-1,.94Z" transform="translate(-56 -56)"/><path id="Path_236" data-name="Path 236" class="cls-15" d="M91.07,93.81h-.95v-1.9h.95a1,1,0,0,0,1-1v-1.9h1.9V91a2.86,2.86,0,0,1-2.85,2.85Z" transform="translate(-56 -56)"/><path id="Path_237" data-name="Path 237" class="cls-13" d="M89.18,87.17a1,1,0,1,1-1-1A.95.95,0,0,1,89.18,87.17Z" transform="translate(-56 -56)"/><path id="Path_238" data-name="Path 238" class="cls-13" d="M96.76,87.17a.95.95,0,1,1-1-1A.94.94,0,0,1,96.76,87.17Z" transform="translate(-56 -56)"/><rect id="Rectangle_89" data-name="Rectangle 89" class="cls-12" x="38" y="28" width="4" height="1"/></g></svg>