<svg id="Layer_1" data-name="Layer 1" xmlns="http://www.w3.org/2000/svg" viewBox="0 0 87 87"><defs><style>.cls-1{fill:#f5e3f2;}.cls-2{fill:#f4efed;}.cls-3{fill:#d6d1cf;}.cls-4{fill:#fff;}.cls-5{fill:#690589;}.cls-6{fill:#7bac51;}.cls-7{fill:#5d8e33;}.cls-8{fill:#99ca6f;}.cls-9{fill:#e18152;}.cls-10{fill:#ff9f70;}.cls-11{fill:#ffbd8e;}.cls-12{fill:#ff4397;}.cls-13{fill:#e12579;}.cls-14{fill:#ff61b5;}</style></defs><title>خدمات</title><circle id="Ellipse_18" data-name="Ellipse 18" class="cls-1" cx="43.5" cy="43.5" r="43.5"/><g id="Group_57" data-name="Group 57"><path id="Path_194" data-name="Path 194" class="cls-2" d="M114.27,128.54H71.46V108.13a5.76,5.76,0,0,1,5.75-5.76h31.3a5.76,5.76,0,0,1,5.76,5.76Z" transform="translate(-56 -56)"/><path id="Path_195" data-name="Path 195" class="cls-3" d="M108.69,102.38h-2.22A5.57,5.57,0,0,1,112,108v20.59h2.23V108a5.58,5.58,0,0,0-5.58-5.58Z" transform="translate(-56 -56)"/><path id="Path_196" data-name="Path 196" class="cls-4" d="M77,102.38h2.23A5.57,5.57,0,0,0,73.69,108v20.59H71.46V108A5.58,5.58,0,0,1,77,102.37Z" transform="translate(-56 -56)"/><path id="Path_197" data-name="Path 197" class="cls-5" d="M114.27,129H71.46a.47.47,0,0,1-.46-.46h0V108.13a6.21,6.21,0,0,1,6.21-6.21h31.3a6.22,6.22,0,0,1,6.22,6.21v20.41a.47.47,0,0,1-.46.46Zm-42.35-.92h41.89v-20a5.29,5.29,0,0,0-5.29-5.29H77.22a5.31,5.31,0,0,0-5.3,5.29Z" transform="translate(-56 -56)"/><path id="Path_198" data-name="Path 198" class="cls-5" d="M73.24,108.41a.46.46,0,0,1-.46-.46A4.26,4.26,0,0,1,77,103.7a.46.46,0,0,1,.46.46.45.45,0,0,1-.46.46h0A3.34,3.34,0,0,0,73.7,108,.45.45,0,0,1,73.24,108.41Z" transform="translate(-56 -56)"/><rect id="Rectangle_64" data-name="Rectangle 64" class="cls-6" x="22.6" y="56.84" width="28.54" height="15.7"/><rect id="Rectangle_65" data-name="Rectangle 65" class="cls-7" x="48.9" y="56.84" width="2.23" height="15.7"/><rect id="Rectangle_66" data-name="Rectangle 66" class="cls-8" x="22.6" y="56.84" width="2.23" height="15.7"/><rect id="Rectangle_67" data-name="Rectangle 67" class="cls-6" x="22.6" y="46.38" width="3.33" height="10.47"/><rect id="Rectangle_68" data-name="Rectangle 68" class="cls-6" x="47.81" y="46.38" width="3.33" height="10.47"/><path id="Path_199" data-name="Path 199" class="cls-5" d="M107.13,129H78.59a.46.46,0,0,1-.46-.46v-15.7a.47.47,0,0,1,.46-.46h28.54a.46.46,0,0,1,.46.46v15.7A.45.45,0,0,1,107.13,129Zm-28.08-.92h27.62V113.3H79.05Z" transform="translate(-56 -56)"/><path id="Path_200" data-name="Path 200" class="cls-5" d="M81.93,113.3H78.59a.46.46,0,0,1-.46-.46V102.37a.47.47,0,0,1,.46-.46h3.34a.46.46,0,0,1,.45.46v10.47a.46.46,0,0,1-.45.46Zm-2.88-.92h2.41v-9.54H79.05Z" transform="translate(-56 -56)"/><path id="Path_201" data-name="Path 201" class="cls-5" d="M107.13,113.3H103.8a.46.46,0,0,1-.46-.46V102.37a.47.47,0,0,1,.46-.46h3.33a.46.46,0,0,1,.46.46v10.47a.46.46,0,0,1-.46.46Zm-2.86-.92h2.4v-9.54h-2.4Z" transform="translate(-56 -56)"/><path id="Path_202" data-name="Path 202" class="cls-9" d="M92.87,106.35a4.17,4.17,0,0,1-4.17-4.16h0V94.46H97v7.73a4.16,4.16,0,0,1-4.16,4.16Z" transform="translate(-56 -56)"/><path id="Path_203" data-name="Path 203" class="cls-5" d="M92.87,106.82a4.64,4.64,0,0,1-4.63-4.63V94.46A.47.47,0,0,1,88.7,94H97a.47.47,0,0,1,.46.46v7.73a4.64,4.64,0,0,1-4.63,4.63Zm-3.71-11.9v7.27a3.7,3.7,0,0,0,7.4,0V94.92Z" transform="translate(-56 -56)"/><path id="Path_204" data-name="Path 204" class="cls-10" d="M92.87,99.87a9.24,9.24,0,0,1-9.24-9.23V84.25a9.24,9.24,0,0,1,18.47-.1v6.49A9.23,9.23,0,0,1,92.87,99.87Z" transform="translate(-56 -56)"/><path id="Path_205" data-name="Path 205" class="cls-9" d="M92.86,75a8.27,8.27,0,0,0-1.11.07,9.24,9.24,0,0,1,8.12,9.16v6.4a9.23,9.23,0,0,1-8.12,9.16,8.27,8.27,0,0,0,1.11.07,9.24,9.24,0,0,0,9.24-9.23V84.25A9.24,9.24,0,0,0,92.86,75Z" transform="translate(-56 -56)"/><path id="Path_206" data-name="Path 206" class="cls-11" d="M92.87,75a8.27,8.27,0,0,1,1.11.07,9.24,9.24,0,0,0-8.12,9.16v6.4A9.23,9.23,0,0,0,94,99.8a8.27,8.27,0,0,1-1.11.07,9.24,9.24,0,0,1-9.24-9.23V84.25A9.24,9.24,0,0,1,92.87,75Z" transform="translate(-56 -56)"/><path id="Path_207" data-name="Path 207" class="cls-5" d="M92.87,100.33a9.7,9.7,0,0,1-9.7-9.69V84.25a9.7,9.7,0,1,1,19.39,0v6.39a9.7,9.7,0,0,1-9.69,9.69Zm0-24.86a8.79,8.79,0,0,0-8.78,8.78v6.39a8.78,8.78,0,0,0,17.55,0V84.25A8.79,8.79,0,0,0,92.87,75.47Z" transform="translate(-56 -56)"/><path id="Path_208" data-name="Path 208" class="cls-6" d="M83.63,82.68H102.1a4.38,4.38,0,0,1-4.38,4.38H88A4.38,4.38,0,0,1,83.63,82.68Z" transform="translate(-56 -56)"/><path id="Path_209" data-name="Path 209" class="cls-7" d="M99.87,82.68a4.38,4.38,0,0,1-4.38,4.38h2.23a4.38,4.38,0,0,0,4.38-4.38Z" transform="translate(-56 -56)"/><path id="Path_210" data-name="Path 210" class="cls-6" d="M96.35,71.46h-7a5.76,5.76,0,0,0-5.76,5.75v5.47H102.1V77.21A5.76,5.76,0,0,0,96.35,71.46Z" transform="translate(-56 -56)"/><path id="Path_211" data-name="Path 211" class="cls-7" d="M96.53,71.46H94.3A5.58,5.58,0,0,1,99.87,77h0v5.65h2.23V77a5.57,5.57,0,0,0-5.57-5.57Z" transform="translate(-56 -56)"/><path id="Path_212" data-name="Path 212" class="cls-8" d="M89.21,71.46h2.23A5.58,5.58,0,0,0,85.86,77h0v5.65H83.63V77a5.58,5.58,0,0,1,5.58-5.57Z" transform="translate(-56 -56)"/><path id="Path_213" data-name="Path 213" class="cls-5" d="M102.1,83.14H83.63a.47.47,0,0,1-.46-.46V77.21A6.22,6.22,0,0,1,89.39,71h7a6.21,6.21,0,0,1,6.21,6.21v5.47A.47.47,0,0,1,102.1,83.14Zm-18-.92h17.55v-5a5.3,5.3,0,0,0-5.29-5.3h-7a5.31,5.31,0,0,0-5.3,5.3Z" transform="translate(-56 -56)"/><path id="Path_214" data-name="Path 214" class="cls-8" d="M85.86,82.68a4.38,4.38,0,0,0,4.38,4.38H88a4.38,4.38,0,0,1-4.38-4.38h2.23Z" transform="translate(-56 -56)"/><path id="Path_215" data-name="Path 215" class="cls-5" d="M97.72,87.52H88a4.86,4.86,0,0,1-4.84-4.84.46.46,0,0,1,.46-.46H102.1a.46.46,0,0,1,.46.46,4.85,4.85,0,0,1-4.84,4.84Zm-13.6-4.38A3.93,3.93,0,0,0,88,86.6h9.71a3.92,3.92,0,0,0,3.89-3.46Z" transform="translate(-56 -56)"/><rect id="Rectangle_69" data-name="Rectangle 69" class="cls-7" x="43.55" y="64.51" width="2.23" height="8.03"/><rect id="Rectangle_70" data-name="Rectangle 70" class="cls-8" x="27.95" y="64.51" width="2.23" height="8.03"/><path id="Path_216" data-name="Path 216" class="cls-5" d="M101.79,129H84a.46.46,0,0,1-.46-.46v-8a.46.46,0,0,1,.46-.46h17.84a.47.47,0,0,1,.46.46v8A.47.47,0,0,1,101.79,129Zm-17.38-.92h16.92V121H84.41Z" transform="translate(-56 -56)"/><rect id="Rectangle_71" data-name="Rectangle 71" class="cls-7" x="37.98" y="15.49" width="1.12" height="11.18"/><path id="Path_217" data-name="Path 217" class="cls-5" d="M95.09,83.14H90.63a.46.46,0,0,1-.45-.46V71.49a.46.46,0,0,1,.45-.46h4.46a.46.46,0,0,1,.46.46V82.68A.46.46,0,0,1,95.09,83.14Zm-4-.92h3.54V72H91.09Z" transform="translate(-56 -56)"/><rect id="Rectangle_72" data-name="Rectangle 72" class="cls-12" x="52.92" y="52.92" width="19.62" height="3.57"/><path id="Path_218" data-name="Path 218" class="cls-12" d="M127.2,112.48H110.26l2.26,16.06h12.42Z" transform="translate(-56 -56)"/><path id="Path_219" data-name="Path 219" class="cls-13" d="M125,112.48l-2.26,16.06h2.23l2.26-16.06Z" transform="translate(-56 -56)"/><path id="Path_220" data-name="Path 220" class="cls-14" d="M112.48,112.48l2.26,16.06h-2.22l-2.26-16.06Z" transform="translate(-56 -56)"/><rect id="Rectangle_73" data-name="Rectangle 73" class="cls-13" x="69.19" y="52.92" width="3.34" height="3.57"/><rect id="Rectangle_74" data-name="Rectangle 74" class="cls-14" x="52.92" y="52.92" width="3.34" height="3.57"/><path id="Path_221" data-name="Path 221" class="cls-5" d="M124.94,129H112.52a.46.46,0,0,1-.46-.4l-2.26-16a.46.46,0,0,1,.4-.52h17a.46.46,0,0,1,.46.46v.07l-2.26,16a.46.46,0,0,1-.46.4Zm-12-.92h11.62L126.67,113H110.78Z" transform="translate(-56 -56)"/><path id="Path_222" data-name="Path 222" class="cls-5" d="M128.54,112.94H108.92a.45.45,0,0,1-.46-.46h0v-3.56a.45.45,0,0,1,.46-.46h19.62a.46.46,0,0,1,.46.45h0v3.56a.46.46,0,0,1-.46.46ZM109.38,112h18.7v-2.64h-18.7Z" transform="translate(-56 -56)"/><path id="Path_223" data-name="Path 223" class="cls-5" d="M118.73,120.14a6.06,6.06,0,0,1-6-6v-3.34a.47.47,0,0,1,.93,0v3.34a5.11,5.11,0,0,0,10.22.1v-3.44a.46.46,0,0,1,.46-.46.45.45,0,0,1,.46.46v3.34A6,6,0,0,1,118.73,120.14Z" transform="translate(-56 -56)"/></g></svg>