<svg id="Layer_1" data-name="Layer 1" xmlns="http://www.w3.org/2000/svg" viewBox="0 0 87 87"><defs><style>.cls-1{fill:#e1fbd8;}.cls-2{fill:#5be167;}.cls-3{fill:#1fc974;}.cls-4{fill:#e89069;}.cls-5{fill:#fd9e28;}.cls-6{fill:#fd8724;}.cls-7{fill:#bddff4;}.cls-8{fill:#9cc6db;}</style></defs><title>زراعة</title><circle id="Ellipse_14" data-name="Ellipse 14" class="cls-1" cx="43.5" cy="43.5" r="43.5"/><g id="Group_46" data-name="Group 46"><path id="Path_127" data-name="Path 127" class="cls-2" d="M77,71.44v3.47a13.59,13.59,0,0,0,13.59,13.6H98.5V80.6A13.6,13.6,0,0,0,84.9,67H81.43A4.44,4.44,0,0,0,77,71.44Z" transform="translate(-56 -56)"/><path id="Path_128" data-name="Path 128" class="cls-3" d="M77,71.44v3.47a13.59,13.59,0,0,0,13.59,13.6H98.5L78.3,68.31A4.44,4.44,0,0,0,77,71.45Z" transform="translate(-56 -56)"/><path id="Path_129" data-name="Path 129" class="cls-4" d="M98.5,107.53a3.33,3.33,0,0,1-3.32-3.33V66.32a3.33,3.33,0,0,1,6.65,0V104.2a3.33,3.33,0,0,1-3.33,3.33Z" transform="translate(-56 -56)"/><path id="Path_130" data-name="Path 130" class="cls-5" d="M115.08,108.61l-1.28,6.48-2,10.42-1.39,7.11A4.45,4.45,0,0,1,106,136.2H91a4.43,4.43,0,0,1-4.35-3.58l-1.4-7.11L83.2,115.09l-1.27-6.48a4.43,4.43,0,0,1,3.49-5.2,4.11,4.11,0,0,1,.86-.08h24.44a4.43,4.43,0,0,1,4.44,4.42,4.12,4.12,0,0,1-.09.86Z" transform="translate(-56 -56)"/><path id="Path_131" data-name="Path 131" class="cls-6" d="M115.07,108.61l-1.27,6.48-2,10.42-1.4,7.11A4.43,4.43,0,0,1,106,136.2h-4.84a4.44,4.44,0,0,0,4.35-3.58l1.4-7.11,2-10.42,1.28-6.48a4.43,4.43,0,0,0-3.49-5.2,4.12,4.12,0,0,0-.86-.09h4.84a4.43,4.43,0,0,1,4.44,4.43,4.12,4.12,0,0,1-.09.86Z" transform="translate(-56 -56)"/><path id="Path_132" data-name="Path 132" class="cls-7" d="M113.8,115.09l-2,10.42H85.25l-2-10.42Z" transform="translate(-56 -56)"/><path id="Path_133" data-name="Path 133" class="cls-2" d="M120,76.16v3.47a13.6,13.6,0,0,1-13.59,13.6h-5.25a2.66,2.66,0,0,1-2.66-2.66V85.32a13.59,13.59,0,0,1,13.59-13.59h3.48A4.43,4.43,0,0,1,120,76.16Z" transform="translate(-56 -56)"/><path id="Path_134" data-name="Path 134" class="cls-3" d="M120,76.16v3.47a13.59,13.59,0,0,1-13.6,13.6h-5.24a2.65,2.65,0,0,1-1.88-.78L118.7,73a4.4,4.4,0,0,1,1.3,3.14Z" transform="translate(-56 -56)"/><path id="Path_149" data-name="Path 149" class="cls-8" d="M113.8,115.09l-2,10.42h-4.84l2-10.42Z" transform="translate(-56 -56)"/></g></svg>