<svg id="Layer_1" data-name="Layer 1" xmlns="http://www.w3.org/2000/svg" viewBox="0 0 87 87"><defs><style>.cls-1{fill:#ff5b62;}.cls-2{fill:#b3b3b3;}.cls-3{fill:#f0ba7d;}.cls-4{fill:#fed298;}.cls-5{fill:#15bdb2;}.cls-6{fill:#21d0c3;}.cls-7{fill:#fff;}.cls-8{fill:#eef3f7;}.cls-9{fill:#666;}.cls-10{fill:#0f7986;}.cls-11{fill:#fefefe;}.cls-12{fill:#ebecec;}.cls-13{fill:#4d4d4d;}.cls-14{fill:#076673;}</style></defs><title>طب وصيدلة</title><circle id="Ellipse_21" data-name="Ellipse 21" class="cls-1" cx="43.5" cy="43.5" r="43.5"/><g id="Group_65" data-name="Group 65"><circle id="Ellipse_23" data-name="Ellipse 23" class="cls-1" cx="44" cy="44" r="41"/><path id="Path_273" data-name="Path 273" class="cls-2" d="M94.65,99.26H106l.06.77-5.52,8.37L94.56,100l.09-.69Z" transform="translate(-56 -56)"/><path id="Path_274" data-name="Path 274" class="cls-3" d="M94.72,97.16l-.1,4.72-8,4.38v16.06h27V106.26l-7.45-4.63-.41-4.72-11,.25Z" transform="translate(-56 -56)"/><path id="Path_275" data-name="Path 275" class="cls-4" d="M91,83.38a1.23,1.23,0,0,0-1.65-.53l0,0c-1.24.5,0,5.49.52,6.19s1.23.25,1.51.22c.39,3,.43,5,1.62,6.28A36.24,36.24,0,0,0,98,100a14.54,14.54,0,0,0,2.26.35,14.54,14.54,0,0,0,2.26-.35,36.24,36.24,0,0,0,5.06-4.45c1.19-1.25,1.23-3.3,1.62-6.28.28,0,1,.47,1.51-.22s1.76-5.69.52-6.19a1.22,1.22,0,0,0-1.66.47l0,0a10.67,10.67,0,0,0-1-7.77c-1.48-2.64-4.87-4-8.33-4.11-3.46.1-6.85,1.47-8.33,4.11a10.67,10.67,0,0,0-1,7.77Z" transform="translate(-56 -56)"/><path id="Path_276" data-name="Path 276" class="cls-5" d="M90.69,103.27l1.92-.76,1.55-1.39,5.46,4.14H101l5.46-4.14,3.46,2.15,6,10.23-4.76,25.87a40.79,40.79,0,0,1-19.79.49l-8.55-25.54,7.87-11Z" transform="translate(-56 -56)"/><g id="Group_60" data-name="Group 60"><path id="Path_277" data-name="Path 277" class="cls-6" d="M108.15,102,106,99.26l-5,6,4.27,4.75Z" transform="translate(-56 -56)"/><path id="Path_278" data-name="Path 278" class="cls-6" d="M92.44,101.93l2.21-2.67,5,6L95.18,110Z" transform="translate(-56 -56)"/></g><path id="Path_279" data-name="Path 279" class="cls-7" d="M92.44,101.93l-14.61,4.75A1.63,1.63,0,0,0,76.74,108l-4.3,21.77a40.87,40.87,0,0,0,9.79,6.85l2.14-7a.18.18,0,0,1,.21-.12.17.17,0,0,1,.13.16l.31,8.19a40.4,40.4,0,0,0,15.28,3v-2.71l-7.86-36.2Z" transform="translate(-56 -56)"/><g id="Group_61" data-name="Group 61"><path id="Path_280" data-name="Path 280" class="cls-8" d="M92.44,101.93l-1.67.51L86.34,110l5.6.17-3.44,2,11.8,26-7.86-36.2Z" transform="translate(-56 -56)"/><path id="Path_281" data-name="Path 281" class="cls-8" d="M108.15,102l14.62,4.7a1.63,1.63,0,0,1,1.09,1.31l4.3,21.77a40.55,40.55,0,0,1-9.79,6.84l-2.14-7a.16.16,0,0,0-.21-.11.16.16,0,0,0-.12.15l-.31,8.19a40.51,40.51,0,0,1-15.29,3h0v-2.72L108.15,102Z" transform="translate(-56 -56)"/></g><path id="Path_282" data-name="Path 282" class="cls-7" d="M108.15,102l.93.28,5.18,7.8-5.6.17,3.44,2-11.8,25.95L108.15,102Z" transform="translate(-56 -56)"/><path id="Path_283" data-name="Path 283" class="cls-9" d="M108.52,84.55l.86,0,.27-1,.81-.81c.54-4,.7-10.3-3.3-10.11,0,0-.36-4.57-7.57-3.68s-10.47,5.55-10.08,9.44.23,4.35.23,4.35l.81.81.12,1.11.71,0a17.43,17.43,0,0,1,.44-2.15,7.37,7.37,0,0,0,.16-2s8.51.55,10.81-2.38c1.43-1.81,4.69-4.94,4.86-.6,0,1.28-.43,3.21.48,4.62a2.52,2.52,0,0,1,.39,2.44Z" transform="translate(-56 -56)"/><path id="Path_284" data-name="Path 284" class="cls-10" d="M100.3,138.13l2.3-10.6L101,106.64l.85-.37-.91-1H99.62l-.94,1,.88.39L98,127.7l2.27,10.43Z" transform="translate(-56 -56)"/><path id="Path_285" data-name="Path 285" class="cls-11" d="M114.62,124.54a2.91,2.91,0,1,1,3.36-2.37h0a2.92,2.92,0,0,1-3.36,2.37Z" transform="translate(-56 -56)"/><path id="Path_286" data-name="Path 286" class="cls-10" d="M114.65,124.37a2.73,2.73,0,1,1,3.16-2.23,2.73,2.73,0,0,1-3.16,2.23Z" transform="translate(-56 -56)"/><path id="Path_287" data-name="Path 287" class="cls-12" d="M114.85,123.17a1.52,1.52,0,1,1,1.76-1.24A1.52,1.52,0,0,1,114.85,123.17Z" transform="translate(-56 -56)"/><path id="Path_288" data-name="Path 288" class="cls-11" d="M115,120.35l.67.11.36-2.07-.67-.12Z" transform="translate(-56 -56)"/><path id="Path_289" data-name="Path 289" class="cls-6" d="M92.73,125.12l1.25-.25a2,2,0,0,0,1.55-2.31l-1.47-7.39a5.67,5.67,0,0,0-5.23-4.53,9.38,9.38,0,0,0-5.68,1.13A5.66,5.66,0,0,0,80.06,118l1.47,7.39a2,2,0,0,0,.83,1.25h0a2,2,0,0,0,1.48.3l1.24-.25-.1-.52-1.24.25a1.41,1.41,0,0,1-1.08-.21h0a1.5,1.5,0,0,1-.62-.92l-1.46-7.39a5.16,5.16,0,0,1,2.83-5.63,8.92,8.92,0,0,1,5.36-1.06,5.18,5.18,0,0,1,4.78,4.11L95,122.66a1.44,1.44,0,0,1-1.13,1.7l-1.25.25.1.51Z" transform="translate(-56 -56)"/><path id="Path_290" data-name="Path 290" class="cls-13" d="M94.46,116.26l-.23-1.12a5.82,5.82,0,0,0-5.38-4.67,9.47,9.47,0,0,0-5.78,1.15A5.82,5.82,0,0,0,79.89,118l.22,1.13.86-.17-.22-1.13a5,5,0,0,1,2.75-5.44,8.71,8.71,0,0,1,5.25-1,5,5,0,0,1,4.63,4l.22,1.13.86-.17Z" transform="translate(-56 -56)"/><g id="Group_62" data-name="Group 62"><path id="Path_291" data-name="Path 291" class="cls-14" d="M84.1,126.94l.66-.13a.74.74,0,0,0,1,.06.73.73,0,0,0-1-1.09.69.69,0,0,0-.21.3l-.67.14.15.72Z" transform="translate(-56 -56)"/><path id="Path_292" data-name="Path 292" class="cls-14" d="M93.26,125.13l-.66.13a.74.74,0,0,1-1.39-.48.73.73,0,0,1,.94-.45.75.75,0,0,1,.3.2l.67-.13Z" transform="translate(-56 -56)"/></g><path id="Path_293" data-name="Path 293" class="cls-9" d="M86.27,110.52,86,109.24l-.51.1-.5.1.26,1.3a5.47,5.47,0,0,1,.58-.15Z" transform="translate(-56 -56)"/><g id="Group_63" data-name="Group 63"><path id="Path_294" data-name="Path 294" class="cls-10" d="M85.18,126.23a.23.23,0,0,0,.18-.26.22.22,0,0,0-.26-.17.22.22,0,1,0,.08.43Z" transform="translate(-56 -56)"/><path id="Path_295" data-name="Path 295" class="cls-10" d="M91.78,124.92a.23.23,0,0,0,.18-.26.22.22,0,1,0-.44.08h0a.23.23,0,0,0,.26.18Z" transform="translate(-56 -56)"/></g><path id="Path_296" data-name="Path 296" class="cls-11" d="M114.77,123.16a1.44,1.44,0,1,1,1.66-1.17h0A1.44,1.44,0,0,1,114.77,123.16Z" transform="translate(-56 -56)"/><g id="Group_64" data-name="Group 64"><path id="Path_297" data-name="Path 297" class="cls-13" d="M92.45,102.31s-7.9.07-6.57,7l-.73.14c-1.5-7.77,7.27-7.84,7.29-7.84Z" transform="translate(-56 -56)"/><path id="Path_298" data-name="Path 298" class="cls-13" d="M108.16,101.6a7.48,7.48,0,0,1,5.68,2.71c1.87,2.28,3.19,6.46,2.2,14.12l-.73-.09c.94-7.42-.28-11.41-2-13.55a6.71,6.71,0,0,0-5.13-2.44l0-.75Z" transform="translate(-56 -56)"/></g></g></svg>