<svg id="Layer_1" data-name="Layer 1" xmlns="http://www.w3.org/2000/svg" viewBox="0 0 87 87"><defs><style>.cls-1{fill:#e3f0f0;}.cls-2{fill:#faba81;}.cls-3{fill:#f4ba48;}.cls-4{fill:#b58024;}.cls-5{fill:#364875;}.cls-6{fill:#5869a0;}.cls-7{fill:#7383bf;}</style></defs><title>عمارة وهندسة</title><circle id="Ellipse_16" data-name="Ellipse 16" class="cls-1" cx="43.5" cy="43.5" r="43.5"/><g id="Group_53" data-name="Group 53"><path id="Path_162" data-name="Path 162" class="cls-2" d="M84.24,91.36v5.09c0,9,6.82,18.31,15.26,18.31s15.26-9.36,15.26-18.31V91.36Z" transform="translate(-56 -56)"/><path id="Path_163" data-name="Path 163" class="cls-3" d="M103.57,73.05V72a2,2,0,0,0-2-2H97.47a2,2,0,0,0-2,2v1c-7.63,1.83-13.22,8.14-13.22,16.28v2h34.58v-2c0-8.14-5.59-14.45-13.22-16.28" transform="translate(-56 -56)"/><g id="Group_48" data-name="Group 48"><path id="Path_164" data-name="Path 164" class="cls-4" d="M103.57,78.14a1,1,0,0,1-1-.9V74.07a1,1,0,0,1,2,0v3.05a1,1,0,0,1-.91,1h-.11" transform="translate(-56 -56)"/><path id="Path_165" data-name="Path 165" class="cls-4" d="M95.43,78.14a1,1,0,0,1-1-.9V74.07a1,1,0,0,1,2,0v3.05a1,1,0,0,1-.9,1h-.12" transform="translate(-56 -56)"/><path id="Path_166" data-name="Path 166" class="cls-4" d="M118.83,92.38H80.17a1,1,0,0,1-1-1,1,1,0,0,1,1-1h38.66a1,1,0,0,1,0,2h0" transform="translate(-56 -56)"/></g><g id="Group_49" data-name="Group 49"><path id="Path_167" data-name="Path 167" class="cls-5" d="M103.57,123.91H95.43l4.07-9.15Z" transform="translate(-56 -56)"/><path id="Path_168" data-name="Path 168" class="cls-5" d="M94.41,129l1-5.09h8.14l1,5.09Z" transform="translate(-56 -56)"/></g><g id="Group_50" data-name="Group 50"><path id="Path_169" data-name="Path 169" class="cls-6" d="M88.62,108.76l-.31-.1-1,4.07,8.14,11.19,4.07-9.16c-4.27,0-8.14-2.44-10.88-6" transform="translate(-56 -56)"/><path id="Path_170" data-name="Path 170" class="cls-6" d="M110.38,108.76c-2.74,3.56-6.61,6-10.88,6l4.07,9.15,8.14-11.19-1-4.07Z" transform="translate(-56 -56)"/></g><g id="Group_51" data-name="Group 51"><path id="Path_171" data-name="Path 171" class="cls-7" d="M126.56,120.56c-5.6-3-11-5.19-15.87-5.8h-.51l-6.61,9.15,1,5.09H129v-4.38a4.55,4.55,0,0,0-2.44-4.06" transform="translate(-56 -56)"/><path id="Path_172" data-name="Path 172" class="cls-7" d="M88.82,114.76h-.51c-4.88.61-10.27,2.85-15.87,5.8A4.56,4.56,0,0,0,70,124.63V129H94.41l1-5.09Z" transform="translate(-56 -56)"/></g><g id="Group_52" data-name="Group 52"><path id="Path_173" data-name="Path 173" class="cls-4" d="M84.65,80.68l7.73,1.53-1.53-7.43a17.27,17.27,0,0,0-6.2,5.9" transform="translate(-56 -56)"/><path id="Path_174" data-name="Path 174" class="cls-4" d="M114.35,80.68l-7.73,1.53,1.53-7.43a17.27,17.27,0,0,1,6.2,5.9" transform="translate(-56 -56)"/></g></g></svg>