<svg id="Layer_1" data-name="Layer 1" xmlns="http://www.w3.org/2000/svg" viewBox="0 0 43.2 43.22"><defs><style>.cls-1{fill:#fff;}.cls-2{fill:#c1c7de;}.cls-3{fill:#26b99a;}</style></defs><title>فلتر البحث</title><g id="Group_74" data-name="Group 74"><path id="Path_68" data-name="Path 68" class="cls-1" d="M87,76.46a.8.8,0,0,0-.8.8v32a.8.8,0,0,0,1.6,0v-32a.8.8,0,0,0-.8-.8Z" transform="translate(-82.15 -76.46)"/><path id="Path_69" data-name="Path 69" class="cls-1" d="M120.55,86.06a.8.8,0,0,0-.8.8v32a.81.81,0,0,0,.79.82.79.79,0,0,0,.81-.78v-32A.8.8,0,0,0,120.55,86.06Z" transform="translate(-82.15 -76.46)"/><path id="Path_70" data-name="Path 70" class="cls-1" d="M103.75,76.46a.8.8,0,0,0-.8.8v15.2a.8.8,0,1,0,1.6,0V77.26a.8.8,0,0,0-.8-.8Z" transform="translate(-82.15 -76.46)"/><path id="Path_71" data-name="Path 71" class="cls-1" d="M103.75,102.06a.8.8,0,0,0-.8.8v16a.8.8,0,0,0,1.6,0v-16a.79.79,0,0,0-.78-.8Z" transform="translate(-82.15 -76.46)"/><path id="Path_72" data-name="Path 72" class="cls-2" d="M91.75,114.06a4.8,4.8,0,1,1-4.8-4.8h0A4.79,4.79,0,0,1,91.75,114.06Z" transform="translate(-82.15 -76.46)"/><path id="Path_73" data-name="Path 73" class="cls-3" d="M108.55,97.9a5,5,0,1,1-5-5h0a5,5,0,0,1,5,5Z" transform="translate(-82.15 -76.46)"/><path id="Path_74" data-name="Path 74" class="cls-2" d="M125.35,82.06a4.8,4.8,0,1,1-4.8-4.8h0A4.8,4.8,0,0,1,125.35,82.06Z" transform="translate(-82.15 -76.46)"/></g></svg>