<svg id="Layer_1" data-name="Layer 1" xmlns="http://www.w3.org/2000/svg" viewBox="0 0 87 87"><defs><style>.cls-1{fill:#e1fbd8;}.cls-2{fill:#ffdc64;}.cls-3{fill:#e1a546;}.cls-4{fill:#ffc850;}.cls-5{fill:#707487;}.cls-6{fill:#5b5d6e;}.cls-7{fill:#464655;}.cls-8{fill:#fff;}</style></defs><title>قيادة</title><circle id="Ellipse_5" data-name="Ellipse 5" class="cls-1" cx="43.5" cy="43.5" r="43.5"/><g id="Group_35" data-name="Group 35"><path id="Path_75" data-name="Path 75" class="cls-2" d="M103.56,77H94.33a2.16,2.16,0,0,0-2.12,1.79l-.77,4.64h15l-.77-4.64A2.16,2.16,0,0,0,103.56,77Z" transform="translate(-56 -56)"/><g id="Group_31" data-name="Group 31"><rect id="Rectangle_21" data-name="Rectangle 21" class="cls-3" x="16.14" y="36.01" width="5.36" height="2.14"/><rect id="Rectangle_22" data-name="Rectangle 22" class="cls-3" x="64.39" y="36.01" width="5.36" height="2.14"/></g><g id="Group_32" data-name="Group 32"><path id="Path_76" data-name="Path 76" class="cls-4" d="M114.92,82.37H83a3.19,3.19,0,0,0-3,2.11l-3.52,9.68v3.21h45V94.16l-3.52-9.68a3.22,3.22,0,0,0-3-2.12Z" transform="translate(-56 -56)"/><path id="Path_77" data-name="Path 77" class="cls-4" d="M72.14,89.87h1.08A2.14,2.14,0,0,1,75.36,92h0a2.14,2.14,0,0,1-2.14,2.14H72.14A2.14,2.14,0,0,1,70,92h0A2.14,2.14,0,0,1,72.14,89.87Z" transform="translate(-56 -56)"/><path id="Path_78" data-name="Path 78" class="cls-4" d="M124.68,89.87h1.07A2.14,2.14,0,0,1,127.89,92h0a2.14,2.14,0,0,1-2.14,2.14h-1.07A2.14,2.14,0,0,1,122.53,92h0a2.14,2.14,0,0,1,2.15-2.14Z" transform="translate(-56 -56)"/></g><path id="Path_79" data-name="Path 79" class="cls-5" d="M114.92,84.51a1.06,1.06,0,0,1,1,.7l3.39,9.32v.7H78.58v-.7L82,85.21a1.06,1.06,0,0,1,1-.7h32" transform="translate(-56 -56)"/><g id="Group_33" data-name="Group 33"><path id="Path_80" data-name="Path 80" class="cls-6" d="M102.16,84.5H83a1.08,1.08,0,0,0-1,.71l-3.39,9.32v.7H91.44Z" transform="translate(-56 -56)"/><path id="Path_81" data-name="Path 81" class="cls-6" d="M72.14,112.38V121A1.07,1.07,0,0,0,73.22,122h3.21A1.07,1.07,0,0,0,77.5,121v-8.58Z" transform="translate(-56 -56)"/></g><path id="Path_82" data-name="Path 82" class="cls-7" d="M72.14,116.64a5.31,5.31,0,0,0,3.22,1.1H77.5v-5.36H72.14Z" transform="translate(-56 -56)"/><path id="Path_83" data-name="Path 83" class="cls-6" d="M125.75,112.38V121a1.07,1.07,0,0,1-1.07,1.07h-3.22a1.07,1.07,0,0,1-1.07-1.07v-8.58Z" transform="translate(-56 -56)"/><path id="Path_84" data-name="Path 84" class="cls-7" d="M125.75,116.64a5.26,5.26,0,0,1-3.21,1.1h-2.15v-5.36h5.36Z" transform="translate(-56 -56)"/><path id="Path_85" data-name="Path 85" class="cls-2" d="M124.81,98.34l-3.35-4.19h-45l-3.35,4.19a4.29,4.29,0,0,0-.94,2.68v11.36a3.22,3.22,0,0,0,3.22,3.22h47.17a3.22,3.22,0,0,0,3.22-3.22h0V101A4.29,4.29,0,0,0,124.81,98.34Z" transform="translate(-56 -56)"/><path id="Path_86" data-name="Path 86" class="cls-4" d="M80.72,108.09A1.07,1.07,0,0,1,79.65,107h0v-6a5.34,5.34,0,0,1,.68-2.68l2.41-4.19h-6.3l-3.36,4.19a4.29,4.29,0,0,0-.94,2.68v11.36a3.22,3.22,0,0,0,3.22,3.22h47.17a3.22,3.22,0,0,0,3.22-3.22h0v-4.29Z" transform="translate(-56 -56)"/><path id="Path_87" data-name="Path 87" class="cls-6" d="M88,106H109.9a1.08,1.08,0,0,0,1-.81l.54-2.15a1.08,1.08,0,0,0-.78-1.3,1.15,1.15,0,0,0-.26,0h-23a1.07,1.07,0,0,0-1.08,1.07.75.75,0,0,0,0,.26l.53,2.15A1.08,1.08,0,0,0,88,106Z" transform="translate(-56 -56)"/><g id="Group_34" data-name="Group 34"><circle id="Ellipse_1" data-name="Ellipse 1" class="cls-8" cx="23.65" cy="54.77" r="1.61"/><circle id="Ellipse_2" data-name="Ellipse 2" class="cls-8" cx="62.25" cy="54.77" r="1.61"/><circle id="Ellipse_3" data-name="Ellipse 3" class="cls-8" cx="23.11" cy="47.27" r="3.22"/><circle id="Ellipse_4" data-name="Ellipse 4" class="cls-8" cx="62.78" cy="47.27" r="3.22"/></g><path id="Path_88" data-name="Path 88" class="cls-7" d="M110.74,111.31H87.15a1.07,1.07,0,0,0-1.07,1.07v3.22h25.73v-3.22A1.07,1.07,0,0,0,110.74,111.31Z" transform="translate(-56 -56)"/><path id="Path_89" data-name="Path 89" class="cls-6" d="M102.16,81.29H95.73a1.07,1.07,0,0,1-1.07-1.07h0a1.07,1.07,0,0,1,1.07-1.07h6.43a1.07,1.07,0,0,1,1.08,1.07h0a1.07,1.07,0,0,1-1.08,1.07Z" transform="translate(-56 -56)"/></g></svg>