<svg id="Layer_1" data-name="Layer 1" xmlns="http://www.w3.org/2000/svg" xmlns:xlink="http://www.w3.org/1999/xlink" viewBox="0 0 172.05 163.1"><defs><style>.cls-1{fill:none;stroke:#fff;stroke-miterlimit:10;stroke-width:0.25px;}.cls-2{clip-path:url(#clip-path);}</style><clipPath id="clip-path" transform="translate(-7.67 -9.68)"><rect class="cls-1" x="7.8" y="9.81" width="171.74" height="162.84"/></clipPath></defs><title>كيفية الاستخدام مع تغير اللون</title><g id="Group_105" data-name="Group 105"><g id="Group_101" data-name="Group 101"><path id="Path_355" data-name="Path 355" class="cls-1" d="M102.8,149v-8H82.18v8l10.31,9.17Z" transform="translate(-7.67 -9.68)"/><path id="Path_356" data-name="Path 356" class="cls-1" d="M113.91,166.77a22.35,22.35,0,0,1,8.36-4v-5.56a4.57,4.57,0,0,0-3.53-4.46l-14.18-3.34a2,2,0,0,1-.59-.24l-11.48,6.7-11-7a2.21,2.21,0,0,1-1,.56l-14.18,3.34a4.58,4.58,0,0,0-3.53,4.46v6.08a85,85,0,0,0,13.51,5.18h32.44A21.61,21.61,0,0,1,113.91,166.77Z" transform="translate(-7.67 -9.68)"/><path id="Path_357" data-name="Path 357" class="cls-1" d="M82.18,141v8.47c13,4.67,20.62-7,20.62-7V141Z" transform="translate(-7.67 -9.68)"/><path id="Path_358" data-name="Path 358" class="cls-1" d="M77.59,114.65l1,22a6.9,6.9,0,0,0,2.75,5.19l4.73,3.55a6.9,6.9,0,0,0,4.13,1.37h4.58a6.89,6.89,0,0,0,4.12-1.37l4.74-3.55a6.89,6.89,0,0,0,2.74-5.19l1-22Z" transform="translate(-7.67 -9.68)"/><path id="Path_359" data-name="Path 359" class="cls-1" d="M89.05,119.23c4.58,0,11.45-1.15,13.09-4.58H77.59l1,22a6.9,6.9,0,0,0,2.75,5.19l4.73,3.55a6.9,6.9,0,0,0,4.13,1.37h2.29c-2.29,0-6.88-4.58-6.88-10.31V122.67A3.67,3.67,0,0,1,89.05,119.23Z" transform="translate(-7.67 -9.68)"/><g id="Group_99" data-name="Group 99"><path id="Path_360" data-name="Path 360" class="cls-1" d="M73,167.47v-2.15a5.74,5.74,0,0,0-1.9-4.27l-7.42-6.66a4.54,4.54,0,0,0-1,2.84v6.08A20.45,20.45,0,0,1,73,167.47Z" transform="translate(-7.67 -9.68)"/><path id="Path_361" data-name="Path 361" class="cls-1" d="M113.91,166.77a22.5,22.5,0,0,1,8.36-4v-5.56a4.58,4.58,0,0,0-1-2.84l-7.42,6.67a5.71,5.71,0,0,0-1.9,4.26v1.91C112.61,167.05,113.26,166.89,113.91,166.77Z" transform="translate(-7.67 -9.68)"/></g><path id="Path_362" data-name="Path 362" class="cls-1" d="M95.35,168.49H89.62l.72-10.31h4.3Z" transform="translate(-7.67 -9.68)"/><path id="Path_363" data-name="Path 363" class="cls-1" d="M95.35,155.89H89.62V158a1.28,1.28,0,0,0,1.28,1.28h3.17A1.28,1.28,0,0,0,95.35,158v-2.15Z" transform="translate(-7.67 -9.68)"/><g id="Group_100" data-name="Group 100"><path id="Path_364" data-name="Path 364" class="cls-1" d="M82,146.46l10.47,9.43a39,39,0,0,0-6.55,4.46,1.47,1.47,0,0,1-2.07-.19,1.15,1.15,0,0,1-.21-.33L78.74,149l1.56-2.33a1.14,1.14,0,0,1,1.59-.32Z" transform="translate(-7.67 -9.68)"/><path id="Path_365" data-name="Path 365" class="cls-1" d="M103,146.46l-10.47,9.43A39.21,39.21,0,0,1,99,160.35a1.47,1.47,0,0,0,2.07-.19,1.38,1.38,0,0,0,.2-.33L106.23,149l-1.55-2.33a1.15,1.15,0,0,0-1.59-.32Z" transform="translate(-7.67 -9.68)"/></g><path id="Path_366" data-name="Path 366" class="cls-1" d="M99.43,107.06l1.08,7.59c4.9,1,5.6,8.67,5.71,10.87a2.25,2.25,0,0,0,.36,1.12l1.87,2.9s-.64-4.8,2.29-8C110.74,121.52,111.75,102.48,99.43,107.06Z" transform="translate(-7.67 -9.68)"/><path id="Path_367" data-name="Path 367" class="cls-1" d="M109.6,129.05l-1.3,5.17a1.37,1.37,0,0,1-1.33,1.05h0a1.38,1.38,0,0,1-1.37-1.21l-.66-5.29a2.37,2.37,0,0,1,2.06-2.65l.29,0h0a2.38,2.38,0,0,1,2.38,2.37A2.79,2.79,0,0,1,109.6,129.05Z" transform="translate(-7.67 -9.68)"/><path id="Path_368" data-name="Path 368" class="cls-1" d="M78.69,105l1.7,1.15c-7.66,5.66-6.23,15.36-6.23,15.36,2.29,2.29,2.29,8,2.29,8l2.29-2.29s-.89-6.62,3.44-9.16c4-2.37,7.51-1.15,11.1-1.15,9.59,0,12.27-3.62,11.81-8-.24-2.28-3.73-7-12.6-6.87C88.9,102.11,82.18,103.19,78.69,105Z" transform="translate(-7.67 -9.68)"/><path id="Path_369" data-name="Path 369" class="cls-1" d="M78,115.94a12.58,12.58,0,0,1,2.37-9.78c-7.66,5.66-6.23,15.36-6.23,15.36,2.29,2.29,2.29,8,2.29,8l2.29-2.29s-.89-6.62,3.44-9.17c4-2.36,7.51-1.14,11.1-1.14a28.58,28.58,0,0,0,4.13-.29C90,116.9,85.66,111.31,78,115.94Z" transform="translate(-7.67 -9.68)"/><path id="Path_370" data-name="Path 370" class="cls-1" d="M75.38,129.05l1.29,5.17A1.37,1.37,0,0,0,78,135.27h0a1.38,1.38,0,0,0,1.37-1.21l.66-5.29A2.37,2.37,0,0,0,78,126.12l-.29,0h0a2.38,2.38,0,0,0-2.38,2.37A2.25,2.25,0,0,0,75.38,129.05Z" transform="translate(-7.67 -9.68)"/><path id="Path_371" data-name="Path 371" class="cls-1" d="M107.38,166.2h-8a1.15,1.15,0,0,0-1.15,1.14h0v1.15h10.31v-1.15A1.14,1.14,0,0,0,107.38,166.2Z" transform="translate(-7.67 -9.68)"/></g><g id="Group_104" data-name="Group 104"><g id="Group_103" data-name="Group 103"><g class="cls-2"><g id="Group_102" data-name="Group 102"><path id="Path_372" data-name="Path 372" class="cls-1" d="M36.29,94.48V76a1.82,1.82,0,0,0-1.82-1.84H30.58a1.84,1.84,0,1,0,0,3.67h2V94.48a1.84,1.84,0,0,0,3.67.08v-.08Z" transform="translate(-7.67 -9.68)"/><path id="Path_373" data-name="Path 373" class="cls-1" d="M179.6,85.24a26.63,26.63,0,0,0-21.77-26.19l-.34-.61a75.2,75.2,0,0,0-40.16-32.93h0a26.61,26.61,0,0,0-48.47-.16,74.79,74.79,0,0,0-40.8,33.3,26.59,26.59,0,0,0-9.6,47.11A75,75,0,0,0,166.88,108s0,0,0-.07A26.61,26.61,0,0,0,179.6,85.24ZM93.05,13.48a23,23,0,1,1-23,23,23,23,0,0,1,23-23Zm-81.57,71a23,23,0,1,1,23,23,23,23,0,0,1-23-23Zm116.78,73.86,0-.21a24,24,0,0,1-3.34,2h0a71.59,71.59,0,0,1-30,7.46h0a19.53,19.53,0,0,1-2.42.15,21,21,0,0,1-2.75-.18,71,71,0,0,1-28.54-7.32,1.77,1.77,0,0,1,0-.2,20.07,20.07,0,0,1-3.37-1.78c0,.06,0,.12,0,.17a71.23,71.23,0,0,1-35.28-50.12A26.64,26.64,0,1,0,34.45,57.85c-.55,0-1.11,0-1.65.08A71.08,71.08,0,0,1,67.26,29.81a26.66,26.66,0,1,0,51.61.2,71.42,71.42,0,0,1,34.39,28.6l-.32,0a26.66,26.66,0,1,0,9.85,51.4,70.77,70.77,0,0,1-34.54,48.36Zm24.68-50.13a23,23,0,1,1,23-23,23,23,0,0,1-23,23Z" transform="translate(-7.67 -9.68)"/><path id="Path_374" data-name="Path 374" class="cls-1" d="M152.94,108.22" transform="translate(-7.67 -9.68)"/></g></g><rect class="cls-1" x="0.13" y="0.13" width="171.74" height="162.84"/></g><path id="Path_375" data-name="Path 375" class="cls-1" d="M94.67,35.66l-.06,0-8,8a1.71,1.71,0,0,0-.4.6,1.82,1.82,0,0,0,1,2.39,1.69,1.69,0,0,0,.7.15h9.7a1.84,1.84,0,0,0,0-3.67H92.31l4.89-4.9,0,0a6.6,6.6,0,1,0-11-4.89,1.84,1.84,0,0,0,3.67.09v-.09a2.94,2.94,0,1,1,4.84,2.23.13.13,0,0,1-.06.07Z" transform="translate(-7.67 -9.68)"/><path id="Path_376" data-name="Path 376" class="cls-1" d="M159.55,80.52a6.61,6.61,0,0,0-13.22,0,1.84,1.84,0,0,0,3.68,0v0a2.94,2.94,0,0,1,5.87,0,3.06,3.06,0,0,1-.37,1.45,7.27,7.27,0,0,0-2.56-.49,1.84,1.84,0,0,0,0,3.68A3.88,3.88,0,1,1,149.08,89h0a1.84,1.84,0,0,0-3.68,0,7.55,7.55,0,1,0,13.14-5,6.73,6.73,0,0,0,1-3.44Z" transform="translate(-7.67 -9.68)"/><path id="Path_377" data-name="Path 377" class="cls-1" d="M93,67.91a1.83,1.83,0,0,0-1.83,1.84v3.66a1.84,1.84,0,0,0,3.67,0V69.75A1.84,1.84,0,0,0,93,67.91Z" transform="translate(-7.67 -9.68)"/><path id="Path_378" data-name="Path 378" class="cls-1" d="M93,77a1.82,1.82,0,0,0-1.83,1.82h0v5.41a1.84,1.84,0,0,0,3.67,0v-5.4A1.83,1.83,0,0,0,93.05,77Z" transform="translate(-7.67 -9.68)"/><path id="Path_379" data-name="Path 379" class="cls-1" d="M93,87.81a1.83,1.83,0,0,0-1.83,1.83h0v3.67a1.84,1.84,0,0,0,3.67,0V89.64a1.83,1.83,0,0,0-1.83-1.83Z" transform="translate(-7.67 -9.68)"/><path id="Path_380" data-name="Path 380" class="cls-1" d="M63.17,102.88l-2.59-2.6a1.84,1.84,0,0,0-2.6,2.6l2.6,2.6a1.82,1.82,0,0,0,3.12-1.3,1.8,1.8,0,0,0-.53-1.3Z" transform="translate(-7.67 -9.68)"/><path id="Path_381" data-name="Path 381" class="cls-1" d="M66.25,106a1.83,1.83,0,0,0-2.59,2.59h0l2.59,2.6a1.85,1.85,0,0,0,1.3.54,1.8,1.8,0,0,0,1.29-.54,1.84,1.84,0,0,0,0-2.6h0Z" transform="translate(-7.67 -9.68)"/><path id="Path_382" data-name="Path 382" class="cls-1" d="M66.25,106" transform="translate(-7.67 -9.68)"/><path id="Path_383" data-name="Path 383" class="cls-1" d="M124.71,100.28l-2.6,2.6a1.84,1.84,0,1,0,2.6,2.6l2.59-2.6a1.83,1.83,0,0,0-2.59-2.6Z" transform="translate(-7.67 -9.68)"/><path id="Path_384" data-name="Path 384" class="cls-1" d="M117.77,107.22l-2.6,2.59a1.84,1.84,0,0,0,2.6,2.6l2.59-2.6a1.83,1.83,0,0,0-2.59-2.59Z" transform="translate(-7.67 -9.68)"/><path id="Path_385" data-name="Path 385" class="cls-1" d="M117.77,107.22" transform="translate(-7.67 -9.68)"/></g></g></svg>