<svg id="Layer_1" data-name="Layer 1" xmlns="http://www.w3.org/2000/svg" xmlns:xlink="http://www.w3.org/1999/xlink" viewBox="0 0 171.8 161.52"><defs><style>.cls-1{fill:none;}.cls-2{fill:#e29e63;}.cls-3{fill:#ebf0f9;}.cls-4{fill:#ca8759;}.cls-5{fill:#eeb172;}.cls-6{fill:#dbe4f4;}.cls-7{fill:#484b5c;}.cls-8{fill:#3f4151;}.cls-9{fill:#654340;}.cls-10{fill:#563a3b;}.cls-11{fill:#483237;}.cls-12{clip-path:url(#clip-path);}.cls-13{fill:#23c0e9;}</style><clipPath id="clip-path" transform="translate(-16.61 -13.2)"><rect class="cls-1" x="16.61" y="13.2" width="171.74" height="162.84"/></clipPath></defs><title>كيفية الاستخدام</title><g id="Group_105" data-name="Group 105"><g id="Group_101" data-name="Group 101"><path id="Path_355" data-name="Path 355" class="cls-2" d="M111.61,152.4v-8H91v8l10.31,9.17Z" transform="translate(-16.61 -13.2)"/><path id="Path_356" data-name="Path 356" class="cls-3" d="M122.72,170.16a22.35,22.35,0,0,1,8.36-4v-5.56a4.57,4.57,0,0,0-3.53-4.46l-14.18-3.34a2,2,0,0,1-.59-.24l-11.48,6.7-11-7a2.21,2.21,0,0,1-1,.56l-14.17,3.34a4.59,4.59,0,0,0-3.54,4.46v6.08A85,85,0,0,0,85,171.88h32.44A21.61,21.61,0,0,1,122.72,170.16Z" transform="translate(-16.61 -13.2)"/><path id="Path_357" data-name="Path 357" class="cls-4" d="M91,144.39v8.46c13,4.67,20.62-7,20.62-7v-1.42Z" transform="translate(-16.61 -13.2)"/><path id="Path_358" data-name="Path 358" class="cls-5" d="M86.41,118l1,22a6.86,6.86,0,0,0,2.74,5.19l4.73,3.55A6.9,6.9,0,0,0,99,150.11h4.58a6.87,6.87,0,0,0,4.12-1.37l4.74-3.55a6.89,6.89,0,0,0,2.74-5.19l1-22Z" transform="translate(-16.61 -13.2)"/><path id="Path_359" data-name="Path 359" class="cls-2" d="M97.86,122.62c4.58,0,11.46-1.15,13.09-4.58H86.41l1,22a6.86,6.86,0,0,0,2.74,5.19l4.73,3.55A6.9,6.9,0,0,0,99,150.11h2.29c-2.29,0-6.87-4.58-6.87-10.31V126.06A3.65,3.65,0,0,1,97.86,122.62Z" transform="translate(-16.61 -13.2)"/><g id="Group_99" data-name="Group 99"><path id="Path_360" data-name="Path 360" class="cls-6" d="M81.82,170.86v-2.15a5.74,5.74,0,0,0-1.9-4.27l-7.42-6.66a4.58,4.58,0,0,0-1,2.84v6.08A20.45,20.45,0,0,1,81.82,170.86Z" transform="translate(-16.61 -13.2)"/><path id="Path_361" data-name="Path 361" class="cls-6" d="M122.73,170.16a22.38,22.38,0,0,1,8.35-4v-5.56a4.63,4.63,0,0,0-1-2.84l-7.43,6.67a5.71,5.71,0,0,0-1.9,4.26v1.92A19.25,19.25,0,0,1,122.73,170.16Z" transform="translate(-16.61 -13.2)"/></g><path id="Path_362" data-name="Path 362" class="cls-7" d="M104.16,171.88H98.43l.72-10.31h4.3Z" transform="translate(-16.61 -13.2)"/><path id="Path_363" data-name="Path 363" class="cls-8" d="M104.16,159.28H98.43v2.15a1.28,1.28,0,0,0,1.28,1.28h3.17a1.28,1.28,0,0,0,1.28-1.28v-2.15Z" transform="translate(-16.61 -13.2)"/><g id="Group_100" data-name="Group 100"><path id="Path_364" data-name="Path 364" class="cls-6" d="M90.83,149.85l10.47,9.43a39.4,39.4,0,0,0-6.55,4.46,1.46,1.46,0,0,1-2.07-.19,1.42,1.42,0,0,1-.21-.33L87.55,152.4l1.56-2.33a1.14,1.14,0,0,1,1.59-.32Z" transform="translate(-16.61 -13.2)"/><path id="Path_365" data-name="Path 365" class="cls-6" d="M111.77,149.85l-10.47,9.43a39.82,39.82,0,0,1,6.55,4.46,1.46,1.46,0,0,0,2.07-.19,1.38,1.38,0,0,0,.2-.33L115,152.4l-1.55-2.33a1.15,1.15,0,0,0-1.59-.32Z" transform="translate(-16.61 -13.2)"/></g><path id="Path_366" data-name="Path 366" class="cls-9" d="M108.24,110.45l1.08,7.59c4.9,1,5.6,8.67,5.71,10.87a2.25,2.25,0,0,0,.36,1.12l1.87,2.9s-.64-4.8,2.29-8C119.55,124.91,120.56,105.87,108.24,110.45Z" transform="translate(-16.61 -13.2)"/><path id="Path_367" data-name="Path 367" class="cls-5" d="M118.41,132.44l-1.3,5.18a1.37,1.37,0,0,1-1.33,1h0a1.38,1.38,0,0,1-1.37-1.21l-.66-5.29a2.38,2.38,0,0,1,2.06-2.65l.29,0h0a2.38,2.38,0,0,1,2.38,2.37A2.79,2.79,0,0,1,118.41,132.44Z" transform="translate(-16.61 -13.2)"/><path id="Path_368" data-name="Path 368" class="cls-10" d="M87.5,108.4l1.7,1.15C81.54,115.21,83,124.91,83,124.91c2.29,2.29,2.29,8,2.29,8l2.29-2.29S86.67,124,91,121.48c4-2.37,7.51-1.15,11.1-1.15,9.59,0,12.27-3.62,11.81-8-.24-2.28-3.72-7-12.6-6.87C97.71,105.5,91,106.58,87.5,108.4Z" transform="translate(-16.61 -13.2)"/><path id="Path_369" data-name="Path 369" class="cls-11" d="M86.83,119.33a12.63,12.63,0,0,1,2.37-9.78C81.54,115.21,83,124.91,83,124.91c2.29,2.29,2.29,8,2.29,8l2.29-2.29S86.67,124,91,121.47c4-2.36,7.51-1.14,11.1-1.14a28.57,28.57,0,0,0,4.13-.28C98.83,120.29,94.47,114.7,86.83,119.33Z" transform="translate(-16.61 -13.2)"/><path id="Path_370" data-name="Path 370" class="cls-2" d="M84.19,132.44l1.29,5.18a1.37,1.37,0,0,0,1.33,1h0a1.37,1.37,0,0,0,1.37-1.21l.66-5.29a2.37,2.37,0,0,0-2.06-2.65l-.29,0h0a2.37,2.37,0,0,0-2.37,2.37A2.25,2.25,0,0,0,84.19,132.44Z" transform="translate(-16.61 -13.2)"/><path id="Path_371" data-name="Path 371" class="cls-6" d="M116.19,169.59h-8a1.15,1.15,0,0,0-1.15,1.14h0v1.15h10.31v-1.15A1.14,1.14,0,0,0,116.19,169.59Z" transform="translate(-16.61 -13.2)"/></g><g id="Group_104" data-name="Group 104"><g id="Group_103" data-name="Group 103"><g class="cls-12"><g id="Group_102" data-name="Group 102"><path id="Path_372" data-name="Path 372" d="M45.1,97.87V79.4a1.83,1.83,0,0,0-1.82-1.84H39.39a1.84,1.84,0,0,0,0,3.67h2V97.87A1.84,1.84,0,1,0,45.1,98v-.08Z" transform="translate(-16.61 -13.2)"/><path id="Path_373" data-name="Path 373" class="cls-13" d="M188.41,88.63a26.63,26.63,0,0,0-21.77-26.19l-.34-.61A75.2,75.2,0,0,0,126.14,28.9h0a26.61,26.61,0,0,0-48.47-.16A74.82,74.82,0,0,0,36.86,62a26.59,26.59,0,0,0-9.6,47.11,75,75,0,0,0,148.43,2.22s0,0,0-.07A26.6,26.6,0,0,0,188.41,88.63ZM101.86,16.87a23,23,0,1,1-23,23,23,23,0,0,1,23-23Zm-81.57,71a23,23,0,1,1,23,23,23,23,0,0,1-23-23Zm116.78,73.86,0-.21a23.42,23.42,0,0,1-3.34,2h0a71.59,71.59,0,0,1-30,7.46h0a21.69,21.69,0,0,1-2.42.16,23,23,0,0,1-2.75-.19A71,71,0,0,1,70,163.63a1.77,1.77,0,0,1,0-.2,20.07,20.07,0,0,1-3.37-1.78c0,.06,0,.12,0,.17A71.23,71.23,0,0,1,31.35,111.7,26.64,26.64,0,1,0,43.26,61.24c-.55,0-1.11,0-1.65.08A71,71,0,0,1,76.07,33.21a26.66,26.66,0,1,0,51.61.19A71.42,71.42,0,0,1,162.07,62l-.32,0a26.66,26.66,0,1,0,9.85,51.4,70.79,70.79,0,0,1-34.53,48.36Zm24.68-50.13a23,23,0,1,1,23-23,23,23,0,0,1-23,23Z" transform="translate(-16.61 -13.2)"/><path id="Path_374" data-name="Path 374" d="M161.75,111.61" transform="translate(-16.61 -13.2)"/></g></g></g><path id="Path_375" data-name="Path 375" d="M103.48,39.05l-.06,0-8,8a1.86,1.86,0,0,0-.4.6,1.83,1.83,0,0,0,1,2.4,1.86,1.86,0,0,0,.7.14h9.7a1.84,1.84,0,0,0,0-3.67h-5.27l4.89-4.9,0,0a6.6,6.6,0,1,0-11-4.89,1.84,1.84,0,0,0,3.67.09v-.09A2.94,2.94,0,1,1,103.53,39a.18.18,0,0,1,0,.07Z" transform="translate(-16.61 -13.2)"/><path id="Path_376" data-name="Path 376" d="M168.36,83.91a6.61,6.61,0,0,0-13.22,0,1.84,1.84,0,0,0,3.68,0v0a2.94,2.94,0,0,1,5.87,0,3,3,0,0,1-.37,1.45,7.27,7.27,0,0,0-2.56-.49,1.84,1.84,0,1,0,0,3.68,3.88,3.88,0,1,1-3.87,3.88h0a1.84,1.84,0,0,0-3.68,0,7.55,7.55,0,1,0,13.14-5,6.63,6.63,0,0,0,1-3.44Z" transform="translate(-16.61 -13.2)"/><path id="Path_377" data-name="Path 377" d="M101.86,71.3A1.84,1.84,0,0,0,100,73.14V76.8a1.84,1.84,0,0,0,3.67,0V73.14A1.83,1.83,0,0,0,101.86,71.3Z" transform="translate(-16.61 -13.2)"/><path id="Path_378" data-name="Path 378" d="M101.86,80.39A1.82,1.82,0,0,0,100,82.21h0v5.42a1.84,1.84,0,0,0,3.67,0V82.22a1.83,1.83,0,0,0-1.83-1.83Z" transform="translate(-16.61 -13.2)"/><path id="Path_379" data-name="Path 379" d="M101.86,91.2A1.83,1.83,0,0,0,100,93h0V96.7a1.84,1.84,0,0,0,3.67,0V93a1.83,1.83,0,0,0-1.83-1.83Z" transform="translate(-16.61 -13.2)"/><path id="Path_380" data-name="Path 380" d="M72,106.27l-2.59-2.6a1.84,1.84,0,0,0-2.6,2.6l2.6,2.6a1.82,1.82,0,0,0,1.29.54,1.84,1.84,0,0,0,1.3-3.14Z" transform="translate(-16.61 -13.2)"/><path id="Path_381" data-name="Path 381" d="M75.06,109.36A1.83,1.83,0,0,0,72.47,112h0l2.59,2.6a1.84,1.84,0,0,0,2.6-2.6h0Z" transform="translate(-16.61 -13.2)"/><path id="Path_382" data-name="Path 382" d="M75.06,109.36" transform="translate(-16.61 -13.2)"/><path id="Path_383" data-name="Path 383" d="M133.52,103.67l-2.6,2.6a1.84,1.84,0,0,0,2.6,2.6l2.59-2.6a1.83,1.83,0,0,0-2.59-2.6Z" transform="translate(-16.61 -13.2)"/><path id="Path_384" data-name="Path 384" d="M126.58,110.61,124,113.2a1.84,1.84,0,0,0,2.6,2.6l2.59-2.6a1.83,1.83,0,1,0-2.59-2.59Z" transform="translate(-16.61 -13.2)"/><path id="Path_385" data-name="Path 385" d="M126.58,110.61" transform="translate(-16.61 -13.2)"/></g></g></svg>