<svg id="Layer_1" data-name="Layer 1" xmlns="http://www.w3.org/2000/svg" viewBox="0 0 87 87"><defs><style>.cls-1{fill:#ff6339;}.cls-2{fill:#ffc473;}.cls-3{fill:#fad818;}.cls-4{fill:#ffdba9;}.cls-5{fill:#ffaa20;}.cls-6{fill:#fff;}.cls-7{fill:#fff5ca;}.cls-8{fill:#57545c;}.cls-9{fill:#3a383f;}.cls-10{fill:#101012;}</style></defs><title>مالية وقانونية</title><circle id="Ellipse_22" data-name="Ellipse 22" class="cls-1" cx="43.5" cy="43.5" r="43.5"/><g id="Group_66" data-name="Group 66"><path id="Path_299" data-name="Path 299" class="cls-1" d="M61,99.5a38.61,38.61,0,1,1,65.9,27.3c-7,7-16.64-3.63-27.3-3.63s-20.22,10.65-27.2,3.73A38.52,38.52,0,0,1,61,99.5Z" transform="translate(-56 -56)"/><rect id="Rectangle_95" data-name="Rectangle 95" class="cls-2" x="36.4" y="45.94" width="14.41" height="8.96"/><rect id="Rectangle_96" data-name="Rectangle 96" class="cls-3" x="43.6" y="45.94" width="7.2" height="8.97"/><path id="Path_301" data-name="Path 301" class="cls-4" d="M113.42,87a13.82,13.82,0,0,0-27.63,0,3.07,3.07,0,0,0-2.48,3.34l.27,2.46A3.07,3.07,0,0,0,87,95.48l.29,0c3.42,8.92,9,11.21,12.37,11.73,3.41-.52,8.94-2.81,12.37-11.73l.28,0a3.08,3.08,0,0,0,3.38-2.72l.26-2.46A3.07,3.07,0,0,0,113.42,87Z" transform="translate(-56 -56)"/><path id="Path_302" data-name="Path 302" class="cls-2" d="M115.9,90.3l-.26,2.46a3.08,3.08,0,0,1-3.37,2.72l-.29,0c-3.43,8.92-9,11.21-12.37,11.74V73.65A14.21,14.21,0,0,1,113.42,87a3.07,3.07,0,0,1,2.48,3.34Z" transform="translate(-56 -56)"/><path id="Path_303" data-name="Path 303" class="cls-5" d="M108.11,90.42H99.6v10h3v-7.2h5.48Z" transform="translate(-56 -56)"/><path id="Path_304" data-name="Path 304" class="cls-6" d="M114.36,109.9H84.85a9.36,9.36,0,0,0-9.35,9.36h0V125a34.22,34.22,0,0,0,48.22,0v-5.7a9.36,9.36,0,0,0-9.36-9.36Z" transform="translate(-56 -56)"/><path id="Path_305" data-name="Path 305" class="cls-7" d="M123.71,119.26V125a34.08,34.08,0,0,1-24.1,9.94v-25h14.75a9.35,9.35,0,0,1,9.35,9.35Z" transform="translate(-56 -56)"/><path id="Path_306" data-name="Path 306" class="cls-8" d="M116.25,109.9h-9.44l-7.2,13.27-7.2-13.27H83a10.55,10.55,0,0,0-10.55,10.55h0v6.43a38.59,38.59,0,0,0,54.39,0v-6.43a10.55,10.55,0,0,0-10.55-10.56Z" transform="translate(-56 -56)"/><path id="Path_307" data-name="Path 307" class="cls-9" d="M126.81,120.46v6.43A38.48,38.48,0,0,1,99.6,138.1V123.17l7.21-13.27h9.44a10.54,10.54,0,0,1,10.55,10.52v0Z" transform="translate(-56 -56)"/><path id="Path_308" data-name="Path 308" class="cls-9" d="M79.67,124v8.56a38.66,38.66,0,0,0,4.52,2.34V124Z" transform="translate(-56 -56)"/><path id="Path_309" data-name="Path 309" class="cls-10" d="M115,124v10.9a39.35,39.35,0,0,0,4.52-2.33V124Z" transform="translate(-56 -56)"/><path id="Path_310" data-name="Path 310" class="cls-9" d="M92.4,109.9H83L99.61,134V122Z" transform="translate(-56 -56)"/><path id="Path_311" data-name="Path 311" class="cls-10" d="M106.81,109.9h9.43L99.6,134V122Z" transform="translate(-56 -56)"/><rect id="Rectangle_97" data-name="Rectangle 97" class="cls-2" x="34.71" y="34.42" width="7.23" height="2.81"/><path id="Path_312" data-name="Path 312" class="cls-6" d="M120.24,101.33a5.36,5.36,0,0,1-.52-7.57,4.26,4.26,0,0,1,.52-.52,5.38,5.38,0,0,1-1.43-7.47,5,5,0,0,1,.51-.63,5.38,5.38,0,0,1-3.27-6.87v0a97.84,97.84,0,0,1-12.5-9.42,5.36,5.36,0,0,1-7.59.3,2.91,2.91,0,0,1-.31-.3,5.38,5.38,0,0,1-6.3,4.27,5.87,5.87,0,0,1-.82-.23Q84.24,79,79.9,85.14a5.36,5.36,0,0,1-.29,7.59,7.79,7.79,0,0,1-.63.51,5.37,5.37,0,0,1,.52,7.57,6.38,6.38,0,0,1-.52.52,5.38,5.38,0,0,1,.52,7.58,6.38,6.38,0,0,1-.52.52Q84.23,97,90.66,85.15A4.33,4.33,0,0,1,93,79.51a5.65,5.65,0,0,1,.8-.24,8,8,0,0,1,9.74.33,3.77,3.77,0,0,1,5,1.88,3.91,3.91,0,0,1,.33,1.85,7.82,7.82,0,0,1,.6,9.91,5.36,5.36,0,0,1,.52,7.57,5.19,5.19,0,0,1-.52.53,5.37,5.37,0,0,1,.53,7.57,6.63,6.63,0,0,1-.53.53,10.23,10.23,0,0,0,10.76-8.1Z" transform="translate(-56 -56)"/><path id="Path_313" data-name="Path 313" class="cls-7" d="M118.4,105.38a5.38,5.38,0,1,1-8.9,4.52,3.7,3.7,0,0,1,0-.47,5.38,5.38,0,0,0,.51-7.58,5,5,0,0,0-.51-.52,5.38,5.38,0,0,0,.52-7.58,6.38,6.38,0,0,0-.52-.52,5.38,5.38,0,0,0-.29-7.59,6.22,6.22,0,0,0-.64-.51,4.32,4.32,0,0,0-2.36-5.63,5.29,5.29,0,0,0-.8-.24,5.36,5.36,0,0,1-5.79-1.4v-7.3a12.86,12.86,0,0,0,11.07,2.31,5.39,5.39,0,0,1,5.38,5.38,5.31,5.31,0,0,1-.31,1.82,28.44,28.44,0,0,0,4.5,13.17,5.38,5.38,0,0,0-.53,7.58,6.5,6.5,0,0,0,.53.52,5.38,5.38,0,0,1-1.84,4Z" transform="translate(-56 -56)"/></g></svg>