<svg id="Layer_1" data-name="Layer 1" xmlns="http://www.w3.org/2000/svg" xmlns:xlink="http://www.w3.org/1999/xlink" viewBox="0 0 87 87"><defs><style>.cls-1{fill:none;}.cls-2{fill:#f5e3f2;}.cls-3{clip-path:url(#clip-path);}.cls-4{fill:#ffbcab;}.cls-5{fill:#ffcd00;}.cls-6{fill:#ddb200;}.cls-7{fill:#006df0;}.cls-8{fill:#ff5023;}.cls-9{fill:#005ece;}.cls-10{fill:#ff9478;}</style><clipPath id="clip-path" transform="translate(-56 -56)"><rect class="cls-1" x="74" y="70" width="52" height="58"/></clipPath></defs><title>وظائف حرف</title><circle id="Ellipse_6" data-name="Ellipse 6" class="cls-2" cx="43.5" cy="43.5" r="43.5"/><g id="Group_38" data-name="Group 38"><g id="Group_37" data-name="Group 37"><g class="cls-3"><g id="Group_36" data-name="Group 36"><path id="Path_90" data-name="Path 90" class="cls-4" d="M91.27,125a2,2,0,0,1,1.2.4l2.92,2.19a2,2,0,0,0,1.2.41h20.26a3,3,0,0,0,.08-6h1.92a3,3,0,0,0,0-6h2a3,3,0,0,0,0-6h2a3,3,0,0,0,3-3,1.62,1.62,0,0,0,0-.22,3.1,3.1,0,0,0-3.15-2.77H105.89a2,2,0,0,1-2-2h0v-7H99.74a2,2,0,0,0-1.41.59l-5.81,5.8a2,2,0,0,1-1.4.59H88V125Z" transform="translate(-56 -56)"/></g></g></g><path id="Path_91" data-name="Path 91" class="cls-5" d="M112.86,70.05V80.18l-4,3-4-3V70.05a10,10,0,0,0-2.39,16.78,3.91,3.91,0,0,1,1.39,3v12.24a2,2,0,0,0,2,2h8V89.85a3.89,3.89,0,0,1,1.4-3,10,10,0,0,0-2.4-16.78Z" transform="translate(-56 -56)"/><path id="Path_92" data-name="Path 92" class="cls-6" d="M106.88,87.86a3.94,3.94,0,0,0-1.39-3,10,10,0,0,1-1.29-14,9.6,9.6,0,0,1,.69-.74v0a10,10,0,0,0-2.4,16.78,4,4,0,0,1,1.4,3v12.24a2,2,0,0,0,2,2h1Z" transform="translate(-56 -56)"/><path id="Path_93" data-name="Path 93" class="cls-7" d="M88,125V99.11H74V128H88Zm-7-1a2,2,0,1,1,2-2h0a2,2,0,0,1-2,2Z" transform="translate(-56 -56)"/><path id="Path_94" data-name="Path 94" class="cls-8" d="M83,122a2,2,0,1,1-2-2,2,2,0,0,1,2,2Z" transform="translate(-56 -56)"/><rect id="Rectangle_24" data-name="Rectangle 24" class="cls-9" x="18" y="43" width="4" height="29"/><path id="Path_95" data-name="Path 95" class="cls-10" d="M120.83,110.07h-10v1H123A2.92,2.92,0,0,0,120.83,110.07Z" transform="translate(-56 -56)"/><path id="Path_96" data-name="Path 96" class="cls-10" d="M118.84,116h-8v1h10.18A3,3,0,0,0,118.84,116Z" transform="translate(-56 -56)"/><path id="Path_97" data-name="Path 97" class="cls-10" d="M116.84,122h-6v1h8.19A3,3,0,0,0,116.84,122Z" transform="translate(-56 -56)"/></g></svg>